# Blender v2.79 (sub 0) OBJ File: ''
# www.blender.org
mtllib boat.mtl
o Cube_Cube.001
v -0.700000 -1.000000 1.400000
v -1.000000 1.000000 2.000000
v -0.700000 -1.000000 -1.400000
v -1.000000 1.000000 -2.000000
v 0.700000 -1.000000 1.400000
v 1.000000 1.000000 2.000000
v 0.700000 -1.000000 -1.400000
v 1.000000 1.000000 -2.000000
v -1.050000 -1.000000 0.000000
v -1.000000 0.000000 2.000000
v -1.500000 1.000000 0.000000
v -1.000000 0.000000 -2.000000
v 0.000000 -1.000000 -2.100000
v 0.000000 1.000000 -3.000000
v 1.000000 0.000000 -2.000000
v 1.050000 -1.000000 0.000000
v 1.500000 1.000000 0.000000
v 1.000000 0.000000 2.000000
v 0.000000 -1.000000 2.100000
v 0.000000 1.000000 3.000000
v -0.800000 1.000000 1.600000
v 0.000000 0.000000 3.000000
v 1.500000 0.000000 0.000000
v 0.000000 0.000000 -3.000000
v -1.500000 0.000000 0.000000
v 0.000000 -1.500000 1.400000
v 0.000000 -1.500000 -1.400000
v 0.000000 -1.600000 0.000000
v -0.800000 1.000000 -1.600000
v 0.800000 1.000000 1.600000
v 0.800000 1.000000 -1.600000
v -1.200000 1.000000 0.000000
v 0.000000 1.000000 -2.400000
v 1.200000 1.000000 0.000000
v 0.000000 1.000000 2.400000
v -0.800000 0.800000 1.600000
v -0.800000 0.800000 -1.600000
v 0.800000 0.800000 1.600000
v 0.800000 0.800000 -1.600000
v -1.200000 0.800000 0.000000
v 0.000000 0.800000 -2.400000
v 1.200000 0.800000 0.000000
v 0.000000 0.800000 2.400000
v -0.800000 0.000000 1.600000
v -0.800000 0.000000 -1.600000
v 0.800000 0.000000 1.600000
v 0.800000 0.000000 -1.600000
v -1.200000 0.000000 0.000000
v 0.000000 0.000000 -2.400000
v 1.200000 0.000000 0.000000
v 0.000000 0.000000 2.400000
v 0.000000 -1.000000 1.000000
v 0.000000 -1.000000 -1.000000
v 0.000000 -1.000000 0.000000
vt 0.397392 0.326850
vt 0.295875 0.326850
vt 0.295743 0.121713
vt 0.397260 0.121713
vt 0.372691 0.543356
vt 0.439922 0.506462
vt 0.529574 0.612632
vt 0.462343 0.649526
vt 0.656167 0.326850
vt 0.554649 0.326850
vt 0.554517 0.121713
vt 0.656035 0.121713
vt 0.606522 0.543356
vt 0.673754 0.506462
vt 0.763406 0.612632
vt 0.696175 0.649526
vt 0.428721 0.869579
vt 0.309931 0.876002
vt 0.295743 0.744626
vt 0.381659 0.736654
vt 0.000000 0.253431
vt 0.098581 0.072409
vt 0.108439 0.115854
vt 0.029574 0.260672
vt 0.221807 0.000000
vt 0.207020 0.057927
vt 0.295743 0.120681
vt 0.295743 0.325840
vt 0.266168 0.318599
vt 0.266168 0.154472
vt 0.197162 0.506862
vt 0.073936 0.579271
vt 0.088723 0.521344
vt 0.187304 0.463417
vt 0.662553 0.869579
vt 0.657314 0.992029
vt 0.571397 1.000000
vt 0.543763 0.876002
vt 0.529574 0.744625
vt 0.615491 0.736654
vt 0.423482 0.992029
vt 0.337565 1.000000
vt 0.552734 0.662335
vt 0.759525 0.171767
vt 0.659191 0.000000
vt 0.761735 0.086568
vt 0.557674 0.000000
vt 0.759618 0.315363
vt 0.529574 0.839419
vt 0.660596 0.506461
vt 0.559078 0.506461
vt 0.318903 0.662335
vt 0.500751 0.171767
vt 0.400417 0.000000
vt 0.502960 0.086568
vt 0.298899 0.000000
vt 0.500843 0.315363
vt 0.763406 0.839419
vt 0.401821 0.506462
vt 0.300304 0.506462
vt 0.554517 0.153899
vt 0.813292 0.153899
vt 0.000000 0.458590
vt 0.029574 0.424799
vt 0.256298 0.592801
vt 0.256298 0.703018
vt 0.241134 0.700312
vt 0.241134 0.590095
vt 0.104662 0.579541
vt 0.101867 0.676904
vt 0.081563 0.676850
vt 0.084358 0.579487
vt 0.180480 0.592801
vt 0.180480 0.703018
vt 0.165316 0.700313
vt 0.165316 0.590095
vt 0.917953 0.000270
vt 0.915158 0.097633
vt 0.894855 0.097579
vt 0.897650 0.000216
vt 0.914809 0.261743
vt 0.894505 0.261689
vt 0.101517 0.841014
vt 0.081214 0.840960
vt 0.104662 0.984712
vt 0.084358 0.984658
vt 0.917953 0.405441
vt 0.897650 0.405387
vt 0.816436 0.405171
vt 0.813292 0.261473
vt 0.180480 0.689489
vt 0.180480 0.579271
vt 0.104662 0.689489
vt 0.104662 0.579271
vt 0.000349 0.676634
vt 0.003145 0.579271
vt 0.813641 0.097363
vt 0.816436 0.000000
vt 0.000000 0.840744
vt 0.003145 0.984442
vt 0.763406 0.709206
vt 0.842271 0.564389
vt 0.906348 0.641625
vt 0.881703 0.738170
vt 1.000000 0.767133
vt 0.921135 0.911951
vt 0.857058 0.834715
vt 0.940852 0.506462
vt 0.822555 0.969878
vt 0.763406 0.873333
vt 1.000000 0.603007
vn -0.9701 0.0000 -0.2425
vn 0.7071 0.0000 -0.7071
vn 0.9701 0.0000 0.2425
vn -0.7071 0.0000 0.7071
vn 0.5297 -0.8427 -0.0963
vn 0.0000 1.0000 0.0000
vn -0.5297 -0.8427 -0.0963
vn -0.5297 -0.8427 0.0963
vn 0.5297 -0.8427 0.0963
vn -0.5965 -0.5369 0.5966
vn 0.5965 -0.5369 0.5966
vn 0.7071 0.0000 0.7071
vn 0.8891 -0.4001 0.2223
vn 0.8891 -0.4001 -0.2223
vn 0.9701 0.0000 -0.2425
vn 0.5965 -0.5369 -0.5966
vn -0.5965 -0.5369 -0.5966
vn -0.7071 0.0000 -0.7071
vn -0.8891 -0.4001 -0.2223
vn -0.8891 -0.4001 0.2223
vn -0.9701 0.0000 0.2425
vn 0.5025 -0.7035 -0.5025
vn -0.5025 -0.7035 -0.5025
vn 0.5025 -0.7035 0.5025
vn -0.5025 -0.7035 0.5025
vn -0.6871 0.7188 0.1057
vn 0.6871 0.7188 -0.1057
vn -0.5025 0.7035 0.5025
vn 0.5025 0.7035 -0.5025
vn -0.5025 0.7035 -0.5025
vn 0.5025 0.7035 0.5025
vn 0.6871 0.7188 0.1057
vn -0.6871 0.7188 -0.1057
usemtl Material
s off
f 25/1/1 11/2/1 4/3/1 12/4/1
f 24/5/2 14/6/2 8/7/2 15/8/2
f 23/9/3 17/10/3 6/11/3 18/12/3
f 22/13/4 20/14/4 2/15/4 10/16/4
f 16/17/5 28/18/5 27/19/5 7/20/5
f 17/21/6 8/22/6 31/23/6 34/24/6
f 8/22/6 14/25/6 33/26/6 31/23/6
f 4/27/6 11/28/6 32/29/6 29/30/6
f 2/31/6 20/32/6 35/33/6 21/34/6
f 9/35/7 3/36/7 27/37/7 28/38/7
f 9/35/8 28/38/8 26/39/8 1/40/8
f 16/17/9 5/41/9 26/42/9 28/18/9
f 19/43/10 22/13/10 10/16/10 1/40/10
f 5/44/11 18/12/11 22/45/11 19/46/11
f 18/12/12 6/11/12 20/47/12 22/45/12
f 16/48/13 23/9/13 18/12/13 5/44/13
f 7/20/14 15/8/14 23/49/14 16/17/14
f 15/50/15 8/51/15 17/10/15 23/9/15
f 13/52/16 24/5/16 15/8/16 7/20/16
f 3/53/17 12/4/17 24/54/17 13/55/17
f 12/4/18 4/3/18 14/56/18 24/54/18
f 9/57/19 25/1/19 12/4/19 3/53/19
f 1/40/20 10/16/20 25/58/20 9/35/20
f 10/59/21 2/60/21 11/2/21 25/1/21
f 7/20/22 27/19/22 13/52/22
f 3/53/23 13/55/23 27/61/23
f 5/44/24 19/46/24 26/62/24
f 1/40/25 26/39/25 19/43/25
f 11/28/6 2/31/6 21/34/6 32/29/6
f 20/32/6 6/63/6 30/64/6 35/33/6
f 6/63/6 17/21/6 34/24/6 30/64/6
f 14/25/6 4/27/6 29/30/6 33/26/6
f 31/65/4 33/66/4 41/67/4 39/68/4
f 35/69/18 30/70/18 38/71/18 43/72/18
f 21/73/2 35/74/2 43/75/2 36/76/2
f 33/77/12 29/78/12 37/79/12 41/80/12
f 29/78/3 32/81/3 40/82/3 37/79/3
f 30/70/1 34/83/1 42/84/1 38/71/1
f 34/83/21 31/85/21 39/86/21 42/84/21
f 32/81/15 21/87/15 36/88/15 40/82/15
f 40/82/15 36/88/15 44/89/15 48/90/15
f 39/68/4 41/67/4 49/91/4 47/92/4
f 36/76/2 43/75/2 51/93/2 44/94/2
f 43/72/18 38/71/18 46/95/18 51/96/18
f 41/80/12 37/79/12 45/97/12 49/98/12
f 37/79/3 40/82/3 48/90/3 45/97/3
f 38/71/1 42/84/1 50/99/1 46/95/1
f 42/84/21 39/86/21 47/100/21 50/99/21
f 50/101/26 47/102/26 53/103/26 54/104/26
f 48/105/27 44/106/27 52/107/27 54/104/27
f 47/102/28 49/108/28 53/103/28
f 44/106/29 51/109/29 52/107/29
f 51/109/30 46/110/30 52/107/30
f 49/108/31 45/111/31 53/103/31
f 45/111/32 48/105/32 54/104/32 53/103/32
f 46/110/33 50/101/33 54/104/33 52/107/33
