# Blender v2.79 (sub 0) OBJ File: 'Bonus_SpeedDown.blend1'
# www.blender.org
mtllib Bonus_SpeedDown.mtl
o Icosphere.009
v -0.167748 -0.162786 -0.217485
v 0.205671 0.122483 0.053817
v -0.310379 0.122483 0.221494
v -0.629323 0.122483 -0.217485
v -0.310379 0.122483 -0.656464
v 0.205671 0.122483 -0.488786
v -0.025118 0.584060 0.221494
v -0.541167 0.584060 0.053817
v -0.541167 0.584060 -0.488786
v -0.025118 0.584060 -0.656464
v 0.293826 0.584060 -0.217485
v -0.167748 0.869329 -0.217485
vt 0.000000 0.000000
vt 1.000000 0.000000
vt 1.000000 1.000000
vt 0.000000 0.000000
vt 1.000000 0.000000
vt 1.000000 1.000000
vt 1.000000 0.000000
vt 1.000000 1.000000
vt 1.000000 0.000000
vt 1.000000 1.000000
vt 1.000000 0.000000
vt 1.000000 0.000000
vt 1.000000 1.000000
vt 0.000000 0.000000
vt 1.000000 1.000000
vt 0.000000 0.000000
vt 1.000000 1.000000
vt 0.000000 0.000000
vt 1.000000 1.000000
vt 0.000000 0.000000
vt 1.000000 1.000000
vt 1.000000 0.000000
vt 1.000000 0.000000
vt 1.000000 0.000000
vt 1.000000 0.000000
vt 1.000000 0.000000
vt 0.000000 0.000000
vt 1.000000 1.000000
vt 0.000000 0.000000
vt 0.000000 0.000000
vt 0.000000 0.000000
vt 0.000000 0.000000
vn 0.1876 -0.7947 0.5774
vn 0.6071 -0.7947 0.0000
vn -0.4911 -0.7947 0.3568
vn -0.4911 -0.7947 -0.3568
vn 0.1876 -0.7947 -0.5774
vn 0.9822 -0.1876 0.0000
vn 0.3035 -0.1876 0.9342
vn -0.7946 -0.1876 0.5774
vn -0.7946 -0.1876 -0.5774
vn 0.3035 -0.1876 -0.9342
vn 0.7946 0.1876 0.5774
vn -0.3035 0.1876 0.9342
vn -0.9822 0.1876 0.0000
vn -0.3035 0.1876 -0.9342
vn 0.7946 0.1876 -0.5774
vn 0.4911 0.7947 0.3568
vn -0.1876 0.7947 0.5774
vn -0.6071 0.7947 0.0000
vn -0.1876 0.7947 -0.5774
vn 0.4911 0.7947 -0.3568
usemtl fruit
s off
f 1/1/1 2/2/1 3/3/1
f 2/4/2 1/5/2 6/6/2
f 1/1/3 3/7/3 4/8/3
f 1/1/4 4/9/4 5/10/4
f 1/1/5 5/11/5 6/6/5
f 2/4/6 6/12/6 11/13/6
f 3/14/7 2/2/7 7/15/7
f 4/16/8 3/7/8 8/17/8
f 5/18/9 4/9/9 9/19/9
f 6/20/10 5/11/10 10/21/10
f 2/4/11 11/22/11 7/15/11
f 3/14/12 7/23/12 8/17/12
f 4/16/13 8/24/13 9/19/13
f 5/18/14 9/25/14 10/21/14
f 6/20/15 10/26/15 11/13/15
f 7/27/16 11/22/16 12/28/16
f 8/29/17 7/23/17 12/28/17
f 9/30/18 8/24/18 12/28/18
f 10/31/19 9/25/19 12/28/19
f 11/32/20 10/26/20 12/28/20
o Icosphere.008
v -0.174363 -0.700071 0.459817
v 0.199056 -0.414802 0.731119
v -0.316993 -0.414802 0.898796
v -0.635938 -0.414802 0.459817
v -0.316993 -0.414802 0.020838
v 0.199056 -0.414802 0.188516
v -0.031732 0.046775 0.898796
v -0.547782 0.046775 0.731119
v -0.547782 0.046775 0.188516
v -0.031732 0.046775 0.020838
v 0.287212 0.046775 0.459817
v -0.174363 0.332044 0.459817
vt 0.000000 0.000000
vt 1.000000 0.000000
vt 1.000000 1.000000
vt 0.000000 0.000000
vt 1.000000 0.000000
vt 1.000000 1.000000
vt 1.000000 0.000000
vt 1.000000 1.000000
vt 1.000000 0.000000
vt 1.000000 1.000000
vt 1.000000 0.000000
vt 1.000000 0.000000
vt 1.000000 1.000000
vt 0.000000 0.000000
vt 1.000000 1.000000
vt 0.000000 0.000000
vt 1.000000 1.000000
vt 0.000000 0.000000
vt 1.000000 1.000000
vt 0.000000 0.000000
vt 1.000000 1.000000
vt 1.000000 0.000000
vt 1.000000 0.000000
vt 1.000000 0.000000
vt 1.000000 0.000000
vt 1.000000 0.000000
vt 0.000000 0.000000
vt 1.000000 1.000000
vt 0.000000 0.000000
vt 0.000000 0.000000
vt 0.000000 0.000000
vt 0.000000 0.000000
vn 0.1876 -0.7947 0.5774
vn 0.6071 -0.7947 0.0000
vn -0.4911 -0.7947 0.3568
vn -0.4911 -0.7947 -0.3568
vn 0.1876 -0.7947 -0.5774
vn 0.9822 -0.1876 0.0000
vn 0.3035 -0.1876 0.9342
vn -0.7946 -0.1876 0.5774
vn -0.7946 -0.1876 -0.5774
vn 0.3035 -0.1876 -0.9342
vn 0.7946 0.1876 0.5774
vn -0.3035 0.1876 0.9342
vn -0.9822 0.1876 0.0000
vn -0.3035 0.1876 -0.9342
vn 0.7946 0.1876 -0.5774
vn 0.4911 0.7947 0.3568
vn -0.1876 0.7947 0.5774
vn -0.6071 0.7947 0.0000
vn -0.1876 0.7947 -0.5774
vn 0.4911 0.7947 -0.3568
usemtl fruit
s off
f 13/33/21 14/34/21 15/35/21
f 14/36/22 13/37/22 18/38/22
f 13/33/23 15/39/23 16/40/23
f 13/33/24 16/41/24 17/42/24
f 13/33/25 17/43/25 18/38/25
f 14/36/26 18/44/26 23/45/26
f 15/46/27 14/34/27 19/47/27
f 16/48/28 15/39/28 20/49/28
f 17/50/29 16/41/29 21/51/29
f 18/52/30 17/43/30 22/53/30
f 14/36/31 23/54/31 19/47/31
f 15/46/32 19/55/32 20/49/32
f 16/48/33 20/56/33 21/51/33
f 17/50/34 21/57/34 22/53/34
f 18/52/35 22/58/35 23/45/35
f 19/59/36 23/54/36 24/60/36
f 20/61/37 19/55/37 24/60/37
f 21/62/38 20/56/38 24/60/38
f 22/63/39 21/57/39 24/60/39
f 23/64/40 22/58/40 24/60/40
o Icosphere.007
v -0.233223 -0.453451 0.795564
v 0.140196 -0.168182 1.066866
v -0.375853 -0.168182 1.234543
v -0.694797 -0.168182 0.795564
v -0.375853 -0.168182 0.356585
v 0.140196 -0.168182 0.524262
v -0.090592 0.293395 1.234543
v -0.606642 0.293395 1.066866
v -0.606642 0.293395 0.524262
v -0.090592 0.293395 0.356585
v 0.228352 0.293395 0.795564
v -0.233223 0.578663 0.795564
vt 0.000000 0.000000
vt 1.000000 0.000000
vt 1.000000 1.000000
vt 0.000000 0.000000
vt 1.000000 0.000000
vt 1.000000 1.000000
vt 1.000000 0.000000
vt 1.000000 1.000000
vt 1.000000 0.000000
vt 1.000000 1.000000
vt 1.000000 0.000000
vt 1.000000 0.000000
vt 1.000000 1.000000
vt 0.000000 0.000000
vt 1.000000 1.000000
vt 0.000000 0.000000
vt 1.000000 1.000000
vt 0.000000 0.000000
vt 1.000000 1.000000
vt 0.000000 0.000000
vt 1.000000 1.000000
vt 1.000000 0.000000
vt 1.000000 0.000000
vt 1.000000 0.000000
vt 1.000000 0.000000
vt 1.000000 0.000000
vt 0.000000 0.000000
vt 1.000000 1.000000
vt 0.000000 0.000000
vt 0.000000 0.000000
vt 0.000000 0.000000
vt 0.000000 0.000000
vn 0.1876 -0.7947 0.5774
vn 0.6071 -0.7947 0.0000
vn -0.4911 -0.7947 0.3568
vn -0.4911 -0.7947 -0.3568
vn 0.1876 -0.7947 -0.5774
vn 0.9822 -0.1876 0.0000
vn 0.3035 -0.1876 0.9342
vn -0.7946 -0.1876 0.5774
vn -0.7946 -0.1876 -0.5774
vn 0.3035 -0.1876 -0.9342
vn 0.7946 0.1876 0.5774
vn -0.3035 0.1876 0.9342
vn -0.9822 0.1876 0.0000
vn -0.3035 0.1876 -0.9342
vn 0.7946 0.1876 -0.5774
vn 0.4911 0.7947 0.3568
vn -0.1876 0.7947 0.5774
vn -0.6071 0.7947 0.0000
vn -0.1876 0.7947 -0.5774
vn 0.4911 0.7947 -0.3568
usemtl fruit
s off
f 25/65/41 26/66/41 27/67/41
f 26/68/42 25/69/42 30/70/42
f 25/65/43 27/71/43 28/72/43
f 25/65/44 28/73/44 29/74/44
f 25/65/45 29/75/45 30/70/45
f 26/68/46 30/76/46 35/77/46
f 27/78/47 26/66/47 31/79/47
f 28/80/48 27/71/48 32/81/48
f 29/82/49 28/73/49 33/83/49
f 30/84/50 29/75/50 34/85/50
f 26/68/51 35/86/51 31/79/51
f 27/78/52 31/87/52 32/81/52
f 28/80/53 32/88/53 33/83/53
f 29/82/54 33/89/54 34/85/54
f 30/84/55 34/90/55 35/77/55
f 31/91/56 35/86/56 36/92/56
f 32/93/57 31/87/57 36/92/57
f 33/94/58 32/88/58 36/92/58
f 34/95/59 33/89/59 36/92/59
f 35/96/60 34/90/60 36/92/60
o Icosphere.006
v 0.247289 0.036382 0.016850
v 0.620708 0.321651 0.288151
v 0.104658 0.321651 0.455829
v -0.214286 0.321651 0.016850
v 0.104658 0.321651 -0.422129
v 0.620708 0.321651 -0.254452
v 0.389919 0.783228 0.455829
v -0.126130 0.783228 0.288151
v -0.126130 0.783228 -0.254452
v 0.389919 0.783228 -0.422129
v 0.708863 0.783228 0.016850
v 0.247289 1.068497 0.016850
vt 0.000000 0.000000
vt 1.000000 0.000000
vt 1.000000 1.000000
vt 0.000000 0.000000
vt 1.000000 0.000000
vt 1.000000 1.000000
vt 1.000000 0.000000
vt 1.000000 1.000000
vt 1.000000 0.000000
vt 1.000000 1.000000
vt 1.000000 0.000000
vt 1.000000 0.000000
vt 1.000000 1.000000
vt 0.000000 0.000000
vt 1.000000 1.000000
vt 0.000000 0.000000
vt 1.000000 1.000000
vt 0.000000 0.000000
vt 1.000000 1.000000
vt 0.000000 0.000000
vt 1.000000 1.000000
vt 1.000000 0.000000
vt 1.000000 0.000000
vt 1.000000 0.000000
vt 1.000000 0.000000
vt 1.000000 0.000000
vt 0.000000 0.000000
vt 1.000000 1.000000
vt 0.000000 0.000000
vt 0.000000 0.000000
vt 0.000000 0.000000
vt 0.000000 0.000000
vn 0.1876 -0.7947 0.5774
vn 0.6071 -0.7947 0.0000
vn -0.4911 -0.7947 0.3568
vn -0.4911 -0.7947 -0.3568
vn 0.1876 -0.7947 -0.5774
vn 0.9822 -0.1876 0.0000
vn 0.3035 -0.1876 0.9342
vn -0.7946 -0.1876 0.5774
vn -0.7946 -0.1876 -0.5774
vn 0.3035 -0.1876 -0.9342
vn 0.7946 0.1876 0.5774
vn -0.3035 0.1876 0.9342
vn -0.9822 0.1876 0.0000
vn -0.3035 0.1876 -0.9342
vn 0.7946 0.1876 -0.5774
vn 0.4911 0.7947 0.3568
vn -0.1876 0.7947 0.5774
vn -0.6071 0.7947 0.0000
vn -0.1876 0.7947 -0.5774
vn 0.4911 0.7947 -0.3568
usemtl fruit
s off
f 37/97/61 38/98/61 39/99/61
f 38/100/62 37/101/62 42/102/62
f 37/97/63 39/103/63 40/104/63
f 37/97/64 40/105/64 41/106/64
f 37/97/65 41/107/65 42/102/65
f 38/100/66 42/108/66 47/109/66
f 39/110/67 38/98/67 43/111/67
f 40/112/68 39/103/68 44/113/68
f 41/114/69 40/105/69 45/115/69
f 42/116/70 41/107/70 46/117/70
f 38/100/71 47/118/71 43/111/71
f 39/110/72 43/119/72 44/113/72
f 40/112/73 44/120/73 45/115/73
f 41/114/74 45/121/74 46/117/74
f 42/116/75 46/122/75 47/109/75
f 43/123/76 47/118/76 48/124/76
f 44/125/77 43/119/77 48/124/77
f 45/126/78 44/120/78 48/124/78
f 46/127/79 45/121/79 48/124/79
f 47/128/80 46/122/80 48/124/80
o Icosphere.005
v 0.220386 0.179594 0.672544
v 0.593805 0.464862 0.943846
v 0.077756 0.464862 1.111523
v -0.241188 0.464862 0.672544
v 0.077756 0.464862 0.233565
v 0.593805 0.464862 0.401242
v 0.363017 0.926439 1.111523
v -0.153033 0.926439 0.943846
v -0.153033 0.926439 0.401242
v 0.363017 0.926439 0.233565
v 0.681961 0.926439 0.672544
v 0.220386 1.211708 0.672544
vt 0.000000 0.000000
vt 1.000000 0.000000
vt 1.000000 1.000000
vt 0.000000 0.000000
vt 1.000000 0.000000
vt 1.000000 1.000000
vt 1.000000 0.000000
vt 1.000000 1.000000
vt 1.000000 0.000000
vt 1.000000 1.000000
vt 1.000000 0.000000
vt 1.000000 0.000000
vt 1.000000 1.000000
vt 0.000000 0.000000
vt 1.000000 1.000000
vt 0.000000 0.000000
vt 1.000000 1.000000
vt 0.000000 0.000000
vt 1.000000 1.000000
vt 0.000000 0.000000
vt 1.000000 1.000000
vt 1.000000 0.000000
vt 1.000000 0.000000
vt 1.000000 0.000000
vt 1.000000 0.000000
vt 1.000000 0.000000
vt 0.000000 0.000000
vt 1.000000 1.000000
vt 0.000000 0.000000
vt 0.000000 0.000000
vt 0.000000 0.000000
vt 0.000000 0.000000
vn 0.1876 -0.7947 0.5774
vn 0.6071 -0.7947 0.0000
vn -0.4911 -0.7947 0.3568
vn -0.4911 -0.7947 -0.3568
vn 0.1876 -0.7947 -0.5774
vn 0.9822 -0.1876 0.0000
vn 0.3035 -0.1876 0.9342
vn -0.7946 -0.1876 0.5774
vn -0.7946 -0.1876 -0.5774
vn 0.3035 -0.1876 -0.9342
vn 0.7946 0.1876 0.5774
vn -0.3035 0.1876 0.9342
vn -0.9822 0.1876 0.0000
vn -0.3035 0.1876 -0.9342
vn 0.7946 0.1876 -0.5774
vn 0.4911 0.7947 0.3568
vn -0.1876 0.7947 0.5774
vn -0.6071 0.7947 0.0000
vn -0.1876 0.7947 -0.5774
vn 0.4911 0.7947 -0.3568
usemtl fruit
s off
f 49/129/81 50/130/81 51/131/81
f 50/132/82 49/133/82 54/134/82
f 49/129/83 51/135/83 52/136/83
f 49/129/84 52/137/84 53/138/84
f 49/129/85 53/139/85 54/134/85
f 50/132/86 54/140/86 59/141/86
f 51/142/87 50/130/87 55/143/87
f 52/144/88 51/135/88 56/145/88
f 53/146/89 52/137/89 57/147/89
f 54/148/90 53/139/90 58/149/90
f 50/132/91 59/150/91 55/143/91
f 51/142/92 55/151/92 56/145/92
f 52/144/93 56/152/93 57/147/93
f 53/146/94 57/153/94 58/149/94
f 54/148/95 58/154/95 59/141/95
f 55/155/96 59/150/96 60/156/96
f 56/157/97 55/151/97 60/156/97
f 57/158/98 56/152/98 60/156/98
f 58/159/99 57/153/99 60/156/99
f 59/160/100 58/154/100 60/156/100
o Icosphere.004
v 0.336440 -0.253155 0.528103
v 0.709859 0.032114 0.799405
v 0.193810 0.032114 0.967082
v -0.125134 0.032114 0.528103
v 0.193810 0.032114 0.089124
v 0.709859 0.032114 0.256801
v 0.479071 0.493691 0.967082
v -0.036979 0.493691 0.799405
v -0.036979 0.493691 0.256801
v 0.479071 0.493691 0.089124
v 0.798015 0.493691 0.528103
v 0.336440 0.778960 0.528103
vt 0.000000 0.000000
vt 1.000000 0.000000
vt 1.000000 1.000000
vt 0.000000 0.000000
vt 1.000000 0.000000
vt 1.000000 1.000000
vt 1.000000 0.000000
vt 1.000000 1.000000
vt 1.000000 0.000000
vt 1.000000 1.000000
vt 1.000000 0.000000
vt 1.000000 0.000000
vt 1.000000 1.000000
vt 0.000000 0.000000
vt 1.000000 1.000000
vt 0.000000 0.000000
vt 1.000000 1.000000
vt 0.000000 0.000000
vt 1.000000 1.000000
vt 0.000000 0.000000
vt 1.000000 1.000000
vt 1.000000 0.000000
vt 1.000000 0.000000
vt 1.000000 0.000000
vt 1.000000 0.000000
vt 1.000000 0.000000
vt 0.000000 0.000000
vt 1.000000 1.000000
vt 0.000000 0.000000
vt 0.000000 0.000000
vt 0.000000 0.000000
vt 0.000000 0.000000
vn 0.1876 -0.7947 0.5774
vn 0.6071 -0.7947 0.0000
vn -0.4911 -0.7947 0.3568
vn -0.4911 -0.7947 -0.3568
vn 0.1876 -0.7947 -0.5774
vn 0.9822 -0.1876 0.0000
vn 0.3035 -0.1876 0.9342
vn -0.7946 -0.1876 0.5774
vn -0.7946 -0.1876 -0.5774
vn 0.3035 -0.1876 -0.9342
vn 0.7946 0.1876 0.5774
vn -0.3035 0.1876 0.9342
vn -0.9822 0.1876 0.0000
vn -0.3035 0.1876 -0.9342
vn 0.7946 0.1876 -0.5774
vn 0.4911 0.7947 0.3568
vn -0.1876 0.7947 0.5774
vn -0.6071 0.7947 0.0000
vn -0.1876 0.7947 -0.5774
vn 0.4911 0.7947 -0.3568
usemtl fruit
s off
f 61/161/101 62/162/101 63/163/101
f 62/164/102 61/165/102 66/166/102
f 61/161/103 63/167/103 64/168/103
f 61/161/104 64/169/104 65/170/104
f 61/161/105 65/171/105 66/166/105
f 62/164/106 66/172/106 71/173/106
f 63/174/107 62/162/107 67/175/107
f 64/176/108 63/167/108 68/177/108
f 65/178/109 64/169/109 69/179/109
f 66/180/110 65/171/110 70/181/110
f 62/164/111 71/182/111 67/175/111
f 63/174/112 67/183/112 68/177/112
f 64/176/113 68/184/113 69/179/113
f 65/178/114 69/185/114 70/181/114
f 66/180/115 70/186/115 71/173/115
f 67/187/116 71/182/116 72/188/116
f 68/189/117 67/183/117 72/188/117
f 69/190/118 68/184/118 72/188/118
f 70/191/119 69/185/119 72/188/119
f 71/192/120 70/186/120 72/188/120
o Icosphere.003
v -0.424768 0.203581 -0.078346
v -0.051349 0.488850 0.192956
v -0.567398 0.488850 0.360633
v -0.886343 0.488850 -0.078346
v -0.567398 0.488850 -0.517325
v -0.051349 0.488850 -0.349647
v -0.282137 0.950427 0.360633
v -0.798187 0.950427 0.192956
v -0.798187 0.950427 -0.349647
v -0.282137 0.950427 -0.517325
v 0.036807 0.950427 -0.078346
v -0.424768 1.235696 -0.078346
vt 0.000000 0.000000
vt 1.000000 0.000000
vt 1.000000 1.000000
vt 0.000000 0.000000
vt 1.000000 0.000000
vt 1.000000 1.000000
vt 1.000000 0.000000
vt 1.000000 1.000000
vt 1.000000 0.000000
vt 1.000000 1.000000
vt 1.000000 0.000000
vt 1.000000 0.000000
vt 1.000000 1.000000
vt 0.000000 0.000000
vt 1.000000 1.000000
vt 0.000000 0.000000
vt 1.000000 1.000000
vt 0.000000 0.000000
vt 1.000000 1.000000
vt 0.000000 0.000000
vt 1.000000 1.000000
vt 1.000000 0.000000
vt 1.000000 0.000000
vt 1.000000 0.000000
vt 1.000000 0.000000
vt 1.000000 0.000000
vt 0.000000 0.000000
vt 1.000000 1.000000
vt 0.000000 0.000000
vt 0.000000 0.000000
vt 0.000000 0.000000
vt 0.000000 0.000000
vn 0.1876 -0.7947 0.5774
vn 0.6071 -0.7947 0.0000
vn -0.4911 -0.7947 0.3568
vn -0.4911 -0.7947 -0.3568
vn 0.1876 -0.7947 -0.5774
vn 0.9822 -0.1876 0.0000
vn 0.3035 -0.1876 0.9342
vn -0.7946 -0.1876 0.5774
vn -0.7946 -0.1876 -0.5774
vn 0.3035 -0.1876 -0.9342
vn 0.7946 0.1876 0.5774
vn -0.3035 0.1876 0.9342
vn -0.9822 0.1876 0.0000
vn -0.3035 0.1876 -0.9342
vn 0.7946 0.1876 -0.5774
vn 0.4911 0.7947 0.3568
vn -0.1876 0.7947 0.5774
vn -0.6071 0.7947 0.0000
vn -0.1876 0.7947 -0.5774
vn 0.4911 0.7947 -0.3568
usemtl fruit
s off
f 73/193/121 74/194/121 75/195/121
f 74/196/122 73/197/122 78/198/122
f 73/193/123 75/199/123 76/200/123
f 73/193/124 76/201/124 77/202/124
f 73/193/125 77/203/125 78/198/125
f 74/196/126 78/204/126 83/205/126
f 75/206/127 74/194/127 79/207/127
f 76/208/128 75/199/128 80/209/128
f 77/210/129 76/201/129 81/211/129
f 78/212/130 77/203/130 82/213/130
f 74/196/131 83/214/131 79/207/131
f 75/206/132 79/215/132 80/209/132
f 76/208/133 80/216/133 81/211/133
f 77/210/134 81/217/134 82/213/134
f 78/212/135 82/218/135 83/205/135
f 79/219/136 83/214/136 84/220/136
f 80/221/137 79/215/137 84/220/137
f 81/222/138 80/216/138 84/220/138
f 82/223/139 81/217/139 84/220/139
f 83/224/140 82/218/140 84/220/140
o Icosphere.002
v -0.436796 0.192352 0.531155
v -0.063377 0.477621 0.802457
v -0.579427 0.477621 0.970134
v -0.898371 0.477621 0.531155
v -0.579427 0.477621 0.092176
v -0.063377 0.477621 0.259853
v -0.294165 0.939198 0.970134
v -0.810215 0.939198 0.802457
v -0.810215 0.939198 0.259853
v -0.294165 0.939198 0.092176
v 0.024779 0.939198 0.531155
v -0.436796 1.224467 0.531155
vt 0.000000 0.000000
vt 1.000000 0.000000
vt 1.000000 1.000000
vt 0.000000 0.000000
vt 1.000000 0.000000
vt 1.000000 1.000000
vt 1.000000 0.000000
vt 1.000000 1.000000
vt 1.000000 0.000000
vt 1.000000 1.000000
vt 1.000000 0.000000
vt 1.000000 0.000000
vt 1.000000 1.000000
vt 0.000000 0.000000
vt 1.000000 1.000000
vt 0.000000 0.000000
vt 1.000000 1.000000
vt 0.000000 0.000000
vt 1.000000 1.000000
vt 0.000000 0.000000
vt 1.000000 1.000000
vt 1.000000 0.000000
vt 1.000000 0.000000
vt 1.000000 0.000000
vt 1.000000 0.000000
vt 1.000000 0.000000
vt 0.000000 0.000000
vt 1.000000 1.000000
vt 0.000000 0.000000
vt 0.000000 0.000000
vt 0.000000 0.000000
vt 0.000000 0.000000
vn 0.1876 -0.7947 0.5774
vn 0.6071 -0.7947 0.0000
vn -0.4911 -0.7947 0.3568
vn -0.4911 -0.7947 -0.3568
vn 0.1876 -0.7947 -0.5774
vn 0.9822 -0.1876 0.0000
vn 0.3035 -0.1876 0.9342
vn -0.7946 -0.1876 0.5774
vn -0.7946 -0.1876 -0.5774
vn 0.3035 -0.1876 -0.9342
vn 0.7946 0.1876 0.5774
vn -0.3035 0.1876 0.9342
vn -0.9822 0.1876 0.0000
vn -0.3035 0.1876 -0.9342
vn 0.7946 0.1876 -0.5774
vn 0.4911 0.7947 0.3568
vn -0.1876 0.7947 0.5774
vn -0.6071 0.7947 0.0000
vn -0.1876 0.7947 -0.5774
vn 0.4911 0.7947 -0.3568
usemtl fruit
s off
f 85/225/141 86/226/141 87/227/141
f 86/228/142 85/229/142 90/230/142
f 85/225/143 87/231/143 88/232/143
f 85/225/144 88/233/144 89/234/144
f 85/225/145 89/235/145 90/230/145
f 86/228/146 90/236/146 95/237/146
f 87/238/147 86/226/147 91/239/147
f 88/240/148 87/231/148 92/241/148
f 89/242/149 88/233/149 93/243/149
f 90/244/150 89/235/150 94/245/150
f 86/228/151 95/246/151 91/239/151
f 87/238/152 91/247/152 92/241/152
f 88/240/153 92/248/153 93/243/153
f 89/242/154 93/249/154 94/245/154
f 90/244/155 94/250/155 95/237/155
f 91/251/156 95/246/156 96/252/156
f 92/253/157 91/247/157 96/252/157
f 93/254/158 92/248/158 96/252/158
f 94/255/159 93/249/159 96/252/159
f 95/256/160 94/250/160 96/252/160
o Icosphere.001
v -0.618043 -0.331911 0.292285
v -0.244624 -0.046642 0.563586
v -0.760673 -0.046642 0.731264
v -1.079618 -0.046642 0.292285
v -0.760673 -0.046642 -0.146694
v -0.244624 -0.046642 0.020983
v -0.475412 0.414935 0.731264
v -0.991462 0.414935 0.563586
v -0.991462 0.414935 0.020983
v -0.475412 0.414935 -0.146694
v -0.156468 0.414935 0.292285
v -0.618043 0.700204 0.292285
vt 0.000000 0.000000
vt 1.000000 0.000000
vt 1.000000 1.000000
vt 0.000000 0.000000
vt 1.000000 0.000000
vt 1.000000 1.000000
vt 1.000000 0.000000
vt 1.000000 1.000000
vt 1.000000 0.000000
vt 1.000000 1.000000
vt 1.000000 0.000000
vt 1.000000 0.000000
vt 1.000000 1.000000
vt 0.000000 0.000000
vt 1.000000 1.000000
vt 0.000000 0.000000
vt 1.000000 1.000000
vt 0.000000 0.000000
vt 1.000000 1.000000
vt 0.000000 0.000000
vt 1.000000 1.000000
vt 1.000000 0.000000
vt 1.000000 0.000000
vt 1.000000 0.000000
vt 1.000000 0.000000
vt 1.000000 0.000000
vt 0.000000 0.000000
vt 1.000000 1.000000
vt 0.000000 0.000000
vt 0.000000 0.000000
vt 0.000000 0.000000
vt 0.000000 0.000000
vn 0.1876 -0.7947 0.5774
vn 0.6071 -0.7947 0.0000
vn -0.4911 -0.7947 0.3568
vn -0.4911 -0.7947 -0.3568
vn 0.1876 -0.7947 -0.5774
vn 0.9822 -0.1876 0.0000
vn 0.3035 -0.1876 0.9342
vn -0.7946 -0.1876 0.5774
vn -0.7946 -0.1876 -0.5774
vn 0.3035 -0.1876 -0.9342
vn 0.7946 0.1876 0.5774
vn -0.3035 0.1876 0.9342
vn -0.9822 0.1876 0.0000
vn -0.3035 0.1876 -0.9342
vn 0.7946 0.1876 -0.5774
vn 0.4911 0.7947 0.3568
vn -0.1876 0.7947 0.5774
vn -0.6071 0.7947 0.0000
vn -0.1876 0.7947 -0.5774
vn 0.4911 0.7947 -0.3568
usemtl fruit
s off
f 97/257/161 98/258/161 99/259/161
f 98/260/162 97/261/162 102/262/162
f 97/257/163 99/263/163 100/264/163
f 97/257/164 100/265/164 101/266/164
f 97/257/165 101/267/165 102/262/165
f 98/260/166 102/268/166 107/269/166
f 99/270/167 98/258/167 103/271/167
f 100/272/168 99/263/168 104/273/168
f 101/274/169 100/265/169 105/275/169
f 102/276/170 101/267/170 106/277/170
f 98/260/171 107/278/171 103/271/171
f 99/270/172 103/279/172 104/273/172
f 100/272/173 104/280/173 105/275/173
f 101/274/174 105/281/174 106/277/174
f 102/276/175 106/282/175 107/269/175
f 103/283/176 107/278/176 108/284/176
f 104/285/177 103/279/177 108/284/177
f 105/286/178 104/280/178 108/284/178
f 106/287/179 105/281/179 108/284/179
f 107/288/180 106/282/180 108/284/180
o Icosphere
v 0.000000 -0.516057 0.000000
v 0.373419 -0.230789 0.271302
v -0.142631 -0.230789 0.438979
v -0.461575 -0.230789 0.000000
v -0.142631 -0.230789 -0.438979
v 0.373419 -0.230789 -0.271302
v 0.142631 0.230789 0.438979
v -0.373419 0.230789 0.271302
v -0.373419 0.230789 -0.271302
v 0.142631 0.230789 -0.438979
v 0.461575 0.230789 0.000000
v 0.000000 0.516057 0.000000
vt 0.000000 0.000000
vt 1.000000 0.000000
vt 1.000000 1.000000
vt 0.000000 0.000000
vt 1.000000 0.000000
vt 1.000000 1.000000
vt 1.000000 0.000000
vt 1.000000 1.000000
vt 1.000000 0.000000
vt 1.000000 1.000000
vt 1.000000 0.000000
vt 1.000000 0.000000
vt 1.000000 1.000000
vt 0.000000 0.000000
vt 1.000000 1.000000
vt 0.000000 0.000000
vt 1.000000 1.000000
vt 0.000000 0.000000
vt 1.000000 1.000000
vt 0.000000 0.000000
vt 1.000000 1.000000
vt 1.000000 0.000000
vt 1.000000 0.000000
vt 1.000000 0.000000
vt 1.000000 0.000000
vt 1.000000 0.000000
vt 0.000000 0.000000
vt 1.000000 1.000000
vt 0.000000 0.000000
vt 0.000000 0.000000
vt 0.000000 0.000000
vt 0.000000 0.000000
vn 0.1876 -0.7947 0.5774
vn 0.6071 -0.7947 0.0000
vn -0.4911 -0.7947 0.3568
vn -0.4911 -0.7947 -0.3568
vn 0.1876 -0.7947 -0.5774
vn 0.9822 -0.1876 0.0000
vn 0.3035 -0.1876 0.9342
vn -0.7946 -0.1876 0.5774
vn -0.7946 -0.1876 -0.5774
vn 0.3035 -0.1876 -0.9342
vn 0.7946 0.1876 0.5774
vn -0.3035 0.1876 0.9342
vn -0.9822 0.1876 0.0000
vn -0.3035 0.1876 -0.9342
vn 0.7946 0.1876 -0.5774
vn 0.4911 0.7947 0.3568
vn -0.1876 0.7947 0.5774
vn -0.6071 0.7947 0.0000
vn -0.1876 0.7947 -0.5774
vn 0.4911 0.7947 -0.3568
usemtl fruit
s off
f 109/289/181 110/290/181 111/291/181
f 110/292/182 109/293/182 114/294/182
f 109/289/183 111/295/183 112/296/183
f 109/289/184 112/297/184 113/298/184
f 109/289/185 113/299/185 114/294/185
f 110/292/186 114/300/186 119/301/186
f 111/302/187 110/290/187 115/303/187
f 112/304/188 111/295/188 116/305/188
f 113/306/189 112/297/189 117/307/189
f 114/308/190 113/299/190 118/309/190
f 110/292/191 119/310/191 115/303/191
f 111/302/192 115/311/192 116/305/192
f 112/304/193 116/312/193 117/307/193
f 113/306/194 117/313/194 118/309/194
f 114/308/195 118/314/195 119/301/195
f 115/315/196 119/310/196 120/316/196
f 116/317/197 115/311/197 120/316/197
f 117/318/198 116/312/198 120/316/198
f 118/319/199 117/313/199 120/316/199
f 119/320/200 118/314/200 120/316/200
o Plane
v 0.197347 1.481122 0.470659
v -0.270096 1.488602 0.313120
v 0.325974 1.515528 0.018722
v -0.112641 1.539146 -0.151671
v 0.174369 1.339525 0.385643
v -0.193556 1.345412 0.261644
v 0.298302 1.379308 0.019805
v -0.069623 1.385195 -0.104194
v 0.149344 1.209303 0.350318
v -0.166890 1.214364 0.243740
v 0.255865 1.243497 0.035878
v -0.060369 1.248558 -0.070701
v 0.106155 1.037067 0.337701
v -0.129843 1.040844 0.258164
v 0.185648 1.062585 0.103042
v -0.050349 1.066362 0.023506
v 0.003754 0.763544 0.463340
v -0.132264 0.765720 0.417499
v 0.049571 0.778251 0.328094
v -0.086448 0.780428 0.282252
v -0.118562 0.585151 0.593035
v -0.118562 0.585151 0.593035
v -0.118562 0.585151 0.593035
v -0.118562 0.585151 0.593035
vn 0.0007 0.9957 0.0925
vn 0.3095 -0.2066 -0.9282
vn -0.8758 -0.3479 -0.3345
vn 0.9313 -0.2498 0.2650
vn 0.3351 -0.1382 -0.9320
vn -0.2906 -0.4574 0.8404
vn 0.2824 -0.4283 -0.8584
vn -0.3162 -0.1913 0.9292
vn -0.9323 -0.1444 -0.3315
vn 0.9239 -0.2549 0.2853
vn -0.9245 -0.1849 -0.3333
vn -0.3192 0.0106 0.9476
vn -0.9156 -0.2233 -0.3344
vn 0.9244 -0.2527 0.2857
vn 0.1595 -0.8432 -0.5133
vn 0.9319 -0.2146 0.2924
vn 0.2277 -0.6690 -0.7075
vn -0.2725 0.4840 0.8316
vn 0.0000 0.0000 1.0000
vn -0.2275 0.6698 0.7068
vn -0.8588 -0.3891 -0.3332
vn 0.8737 -0.4168 0.2507
usemtl tige
s off
f 124//201 122//201 121//201 123//201
f 128//202 127//202 131//202 132//202
f 122//203 124//203 128//203 126//203
f 123//204 121//204 125//204 127//204
f 124//205 123//205 127//205 128//205
f 121//206 122//206 126//206 125//206
f 132//207 131//207 135//207 136//207
f 125//208 126//208 130//208 129//208
f 126//209 128//209 132//209 130//209
f 127//210 125//210 129//210 131//210
f 134//211 136//211 140//211 138//211
f 129//212 130//212 134//212 133//212
f 130//213 132//213 136//213 134//213
f 131//214 129//214 133//214 135//214
f 140//215 139//215 143//215 144//215
f 135//216 133//216 137//216 139//216
f 136//217 135//217 139//217 140//217
f 133//218 134//218 138//218 137//218
f 144//219 143//219 141//219 142//219
f 137//220 138//220 142//220 141//220
f 138//221 140//221 144//221 142//221
f 139//222 137//222 141//222 143//222
