# Blender v2.79 (sub 0) OBJ File: 'Bonus_SpeedDown.blend'
# www.blender.org
mtllib Bonus_SpeedDown.mtl
o Icosphere.009
v -0.167748 -0.162786 -0.217485
v 0.205671 0.122483 0.053817
v -0.310379 0.122483 0.221494
v -0.629323 0.122483 -0.217485
v -0.310379 0.122483 -0.656464
v 0.205671 0.122483 -0.488786
v -0.025118 0.584060 0.221494
v -0.541167 0.584060 0.053817
v -0.541167 0.584060 -0.488786
v -0.025118 0.584060 -0.656464
v 0.293826 0.584060 -0.217485
v -0.167748 0.869329 -0.217485
vn 0.1876 -0.7947 0.5774
vn 0.6071 -0.7947 0.0000
vn -0.4911 -0.7947 0.3568
vn -0.4911 -0.7947 -0.3568
vn 0.1876 -0.7947 -0.5774
vn 0.9822 -0.1876 0.0000
vn 0.3035 -0.1876 0.9342
vn -0.7946 -0.1876 0.5774
vn -0.7946 -0.1876 -0.5774
vn 0.3035 -0.1876 -0.9342
vn 0.7946 0.1876 0.5774
vn -0.3035 0.1876 0.9342
vn -0.9822 0.1876 0.0000
vn -0.3035 0.1876 -0.9342
vn 0.7946 0.1876 -0.5774
vn 0.4911 0.7947 0.3568
vn -0.1876 0.7947 0.5774
vn -0.6071 0.7947 0.0000
vn -0.1876 0.7947 -0.5774
vn 0.4911 0.7947 -0.3568
usemtl fruit
s off
f 1//1 2//1 3//1
f 2//2 1//2 6//2
f 1//3 3//3 4//3
f 1//4 4//4 5//4
f 1//5 5//5 6//5
f 2//6 6//6 11//6
f 3//7 2//7 7//7
f 4//8 3//8 8//8
f 5//9 4//9 9//9
f 6//10 5//10 10//10
f 2//11 11//11 7//11
f 3//12 7//12 8//12
f 4//13 8//13 9//13
f 5//14 9//14 10//14
f 6//15 10//15 11//15
f 7//16 11//16 12//16
f 8//17 7//17 12//17
f 9//18 8//18 12//18
f 10//19 9//19 12//19
f 11//20 10//20 12//20
o Icosphere.008
v -0.174363 -0.700071 0.459817
v 0.199056 -0.414802 0.731119
v -0.316993 -0.414802 0.898796
v -0.635938 -0.414802 0.459817
v -0.316993 -0.414802 0.020838
v 0.199056 -0.414802 0.188516
v -0.031732 0.046775 0.898796
v -0.547782 0.046775 0.731119
v -0.547782 0.046775 0.188516
v -0.031732 0.046775 0.020838
v 0.287212 0.046775 0.459817
v -0.174363 0.332044 0.459817
vn 0.1876 -0.7947 0.5774
vn 0.6071 -0.7947 0.0000
vn -0.4911 -0.7947 0.3568
vn -0.4911 -0.7947 -0.3568
vn 0.1876 -0.7947 -0.5774
vn 0.9822 -0.1876 0.0000
vn 0.3035 -0.1876 0.9342
vn -0.7946 -0.1876 0.5774
vn -0.7946 -0.1876 -0.5774
vn 0.3035 -0.1876 -0.9342
vn 0.7946 0.1876 0.5774
vn -0.3035 0.1876 0.9342
vn -0.9822 0.1876 0.0000
vn -0.3035 0.1876 -0.9342
vn 0.7946 0.1876 -0.5774
vn 0.4911 0.7947 0.3568
vn -0.1876 0.7947 0.5774
vn -0.6071 0.7947 0.0000
vn -0.1876 0.7947 -0.5774
vn 0.4911 0.7947 -0.3568
usemtl fruit
s off
f 13//21 14//21 15//21
f 14//22 13//22 18//22
f 13//23 15//23 16//23
f 13//24 16//24 17//24
f 13//25 17//25 18//25
f 14//26 18//26 23//26
f 15//27 14//27 19//27
f 16//28 15//28 20//28
f 17//29 16//29 21//29
f 18//30 17//30 22//30
f 14//31 23//31 19//31
f 15//32 19//32 20//32
f 16//33 20//33 21//33
f 17//34 21//34 22//34
f 18//35 22//35 23//35
f 19//36 23//36 24//36
f 20//37 19//37 24//37
f 21//38 20//38 24//38
f 22//39 21//39 24//39
f 23//40 22//40 24//40
o Icosphere.007
v -0.233223 -0.453451 0.795564
v 0.140196 -0.168182 1.066866
v -0.375853 -0.168182 1.234543
v -0.694797 -0.168182 0.795564
v -0.375853 -0.168182 0.356585
v 0.140196 -0.168182 0.524262
v -0.090592 0.293395 1.234543
v -0.606642 0.293395 1.066866
v -0.606642 0.293395 0.524262
v -0.090592 0.293395 0.356585
v 0.228352 0.293395 0.795564
v -0.233223 0.578663 0.795564
vn 0.1876 -0.7947 0.5774
vn 0.6071 -0.7947 0.0000
vn -0.4911 -0.7947 0.3568
vn -0.4911 -0.7947 -0.3568
vn 0.1876 -0.7947 -0.5774
vn 0.9822 -0.1876 0.0000
vn 0.3035 -0.1876 0.9342
vn -0.7946 -0.1876 0.5774
vn -0.7946 -0.1876 -0.5774
vn 0.3035 -0.1876 -0.9342
vn 0.7946 0.1876 0.5774
vn -0.3035 0.1876 0.9342
vn -0.9822 0.1876 0.0000
vn -0.3035 0.1876 -0.9342
vn 0.7946 0.1876 -0.5774
vn 0.4911 0.7947 0.3568
vn -0.1876 0.7947 0.5774
vn -0.6071 0.7947 0.0000
vn -0.1876 0.7947 -0.5774
vn 0.4911 0.7947 -0.3568
usemtl fruit
s off
f 25//41 26//41 27//41
f 26//42 25//42 30//42
f 25//43 27//43 28//43
f 25//44 28//44 29//44
f 25//45 29//45 30//45
f 26//46 30//46 35//46
f 27//47 26//47 31//47
f 28//48 27//48 32//48
f 29//49 28//49 33//49
f 30//50 29//50 34//50
f 26//51 35//51 31//51
f 27//52 31//52 32//52
f 28//53 32//53 33//53
f 29//54 33//54 34//54
f 30//55 34//55 35//55
f 31//56 35//56 36//56
f 32//57 31//57 36//57
f 33//58 32//58 36//58
f 34//59 33//59 36//59
f 35//60 34//60 36//60
o Icosphere.006
v 0.247289 0.036382 0.016850
v 0.620708 0.321651 0.288151
v 0.104658 0.321651 0.455829
v -0.214286 0.321651 0.016850
v 0.104658 0.321651 -0.422129
v 0.620708 0.321651 -0.254452
v 0.389919 0.783228 0.455829
v -0.126130 0.783228 0.288151
v -0.126130 0.783228 -0.254452
v 0.389919 0.783228 -0.422129
v 0.708863 0.783228 0.016850
v 0.247289 1.068497 0.016850
vn 0.1876 -0.7947 0.5774
vn 0.6071 -0.7947 0.0000
vn -0.4911 -0.7947 0.3568
vn -0.4911 -0.7947 -0.3568
vn 0.1876 -0.7947 -0.5774
vn 0.9822 -0.1876 0.0000
vn 0.3035 -0.1876 0.9342
vn -0.7946 -0.1876 0.5774
vn -0.7946 -0.1876 -0.5774
vn 0.3035 -0.1876 -0.9342
vn 0.7946 0.1876 0.5774
vn -0.3035 0.1876 0.9342
vn -0.9822 0.1876 0.0000
vn -0.3035 0.1876 -0.9342
vn 0.7946 0.1876 -0.5774
vn 0.4911 0.7947 0.3568
vn -0.1876 0.7947 0.5774
vn -0.6071 0.7947 0.0000
vn -0.1876 0.7947 -0.5774
vn 0.4911 0.7947 -0.3568
usemtl fruit
s off
f 37//61 38//61 39//61
f 38//62 37//62 42//62
f 37//63 39//63 40//63
f 37//64 40//64 41//64
f 37//65 41//65 42//65
f 38//66 42//66 47//66
f 39//67 38//67 43//67
f 40//68 39//68 44//68
f 41//69 40//69 45//69
f 42//70 41//70 46//70
f 38//71 47//71 43//71
f 39//72 43//72 44//72
f 40//73 44//73 45//73
f 41//74 45//74 46//74
f 42//75 46//75 47//75
f 43//76 47//76 48//76
f 44//77 43//77 48//77
f 45//78 44//78 48//78
f 46//79 45//79 48//79
f 47//80 46//80 48//80
o Icosphere.005
v 0.220386 0.179594 0.672544
v 0.593805 0.464862 0.943846
v 0.077756 0.464862 1.111523
v -0.241188 0.464862 0.672544
v 0.077756 0.464862 0.233565
v 0.593805 0.464862 0.401242
v 0.363017 0.926439 1.111523
v -0.153033 0.926439 0.943846
v -0.153033 0.926439 0.401242
v 0.363017 0.926439 0.233565
v 0.681961 0.926439 0.672544
v 0.220386 1.211708 0.672544
vn 0.1876 -0.7947 0.5774
vn 0.6071 -0.7947 0.0000
vn -0.4911 -0.7947 0.3568
vn -0.4911 -0.7947 -0.3568
vn 0.1876 -0.7947 -0.5774
vn 0.9822 -0.1876 0.0000
vn 0.3035 -0.1876 0.9342
vn -0.7946 -0.1876 0.5774
vn -0.7946 -0.1876 -0.5774
vn 0.3035 -0.1876 -0.9342
vn 0.7946 0.1876 0.5774
vn -0.3035 0.1876 0.9342
vn -0.9822 0.1876 0.0000
vn -0.3035 0.1876 -0.9342
vn 0.7946 0.1876 -0.5774
vn 0.4911 0.7947 0.3568
vn -0.1876 0.7947 0.5774
vn -0.6071 0.7947 0.0000
vn -0.1876 0.7947 -0.5774
vn 0.4911 0.7947 -0.3568
usemtl fruit
s off
f 49//81 50//81 51//81
f 50//82 49//82 54//82
f 49//83 51//83 52//83
f 49//84 52//84 53//84
f 49//85 53//85 54//85
f 50//86 54//86 59//86
f 51//87 50//87 55//87
f 52//88 51//88 56//88
f 53//89 52//89 57//89
f 54//90 53//90 58//90
f 50//91 59//91 55//91
f 51//92 55//92 56//92
f 52//93 56//93 57//93
f 53//94 57//94 58//94
f 54//95 58//95 59//95
f 55//96 59//96 60//96
f 56//97 55//97 60//97
f 57//98 56//98 60//98
f 58//99 57//99 60//99
f 59//100 58//100 60//100
o Icosphere.004
v 0.336440 -0.253155 0.528103
v 0.709859 0.032114 0.799405
v 0.193810 0.032114 0.967082
v -0.125134 0.032114 0.528103
v 0.193810 0.032114 0.089124
v 0.709859 0.032114 0.256801
v 0.479071 0.493691 0.967082
v -0.036979 0.493691 0.799405
v -0.036979 0.493691 0.256801
v 0.479071 0.493691 0.089124
v 0.798015 0.493691 0.528103
v 0.336440 0.778960 0.528103
vn 0.1876 -0.7947 0.5774
vn 0.6071 -0.7947 0.0000
vn -0.4911 -0.7947 0.3568
vn -0.4911 -0.7947 -0.3568
vn 0.1876 -0.7947 -0.5774
vn 0.9822 -0.1876 0.0000
vn 0.3035 -0.1876 0.9342
vn -0.7946 -0.1876 0.5774
vn -0.7946 -0.1876 -0.5774
vn 0.3035 -0.1876 -0.9342
vn 0.7946 0.1876 0.5774
vn -0.3035 0.1876 0.9342
vn -0.9822 0.1876 0.0000
vn -0.3035 0.1876 -0.9342
vn 0.7946 0.1876 -0.5774
vn 0.4911 0.7947 0.3568
vn -0.1876 0.7947 0.5774
vn -0.6071 0.7947 0.0000
vn -0.1876 0.7947 -0.5774
vn 0.4911 0.7947 -0.3568
usemtl fruit
s off
f 61//101 62//101 63//101
f 62//102 61//102 66//102
f 61//103 63//103 64//103
f 61//104 64//104 65//104
f 61//105 65//105 66//105
f 62//106 66//106 71//106
f 63//107 62//107 67//107
f 64//108 63//108 68//108
f 65//109 64//109 69//109
f 66//110 65//110 70//110
f 62//111 71//111 67//111
f 63//112 67//112 68//112
f 64//113 68//113 69//113
f 65//114 69//114 70//114
f 66//115 70//115 71//115
f 67//116 71//116 72//116
f 68//117 67//117 72//117
f 69//118 68//118 72//118
f 70//119 69//119 72//119
f 71//120 70//120 72//120
o Icosphere.003
v -0.424768 0.203581 -0.078346
v -0.051349 0.488850 0.192956
v -0.567398 0.488850 0.360633
v -0.886343 0.488850 -0.078346
v -0.567398 0.488850 -0.517325
v -0.051349 0.488850 -0.349647
v -0.282137 0.950427 0.360633
v -0.798187 0.950427 0.192956
v -0.798187 0.950427 -0.349647
v -0.282137 0.950427 -0.517325
v 0.036807 0.950427 -0.078346
v -0.424768 1.235696 -0.078346
vn 0.1876 -0.7947 0.5774
vn 0.6071 -0.7947 0.0000
vn -0.4911 -0.7947 0.3568
vn -0.4911 -0.7947 -0.3568
vn 0.1876 -0.7947 -0.5774
vn 0.9822 -0.1876 0.0000
vn 0.3035 -0.1876 0.9342
vn -0.7946 -0.1876 0.5774
vn -0.7946 -0.1876 -0.5774
vn 0.3035 -0.1876 -0.9342
vn 0.7946 0.1876 0.5774
vn -0.3035 0.1876 0.9342
vn -0.9822 0.1876 0.0000
vn -0.3035 0.1876 -0.9342
vn 0.7946 0.1876 -0.5774
vn 0.4911 0.7947 0.3568
vn -0.1876 0.7947 0.5774
vn -0.6071 0.7947 0.0000
vn -0.1876 0.7947 -0.5774
vn 0.4911 0.7947 -0.3568
usemtl fruit
s off
f 73//121 74//121 75//121
f 74//122 73//122 78//122
f 73//123 75//123 76//123
f 73//124 76//124 77//124
f 73//125 77//125 78//125
f 74//126 78//126 83//126
f 75//127 74//127 79//127
f 76//128 75//128 80//128
f 77//129 76//129 81//129
f 78//130 77//130 82//130
f 74//131 83//131 79//131
f 75//132 79//132 80//132
f 76//133 80//133 81//133
f 77//134 81//134 82//134
f 78//135 82//135 83//135
f 79//136 83//136 84//136
f 80//137 79//137 84//137
f 81//138 80//138 84//138
f 82//139 81//139 84//139
f 83//140 82//140 84//140
o Icosphere.002
v -0.436796 0.192352 0.531155
v -0.063377 0.477621 0.802457
v -0.579427 0.477621 0.970134
v -0.898371 0.477621 0.531155
v -0.579427 0.477621 0.092176
v -0.063377 0.477621 0.259853
v -0.294165 0.939198 0.970134
v -0.810215 0.939198 0.802457
v -0.810215 0.939198 0.259853
v -0.294165 0.939198 0.092176
v 0.024779 0.939198 0.531155
v -0.436796 1.224467 0.531155
vn 0.1876 -0.7947 0.5774
vn 0.6071 -0.7947 0.0000
vn -0.4911 -0.7947 0.3568
vn -0.4911 -0.7947 -0.3568
vn 0.1876 -0.7947 -0.5774
vn 0.9822 -0.1876 0.0000
vn 0.3035 -0.1876 0.9342
vn -0.7946 -0.1876 0.5774
vn -0.7946 -0.1876 -0.5774
vn 0.3035 -0.1876 -0.9342
vn 0.7946 0.1876 0.5774
vn -0.3035 0.1876 0.9342
vn -0.9822 0.1876 0.0000
vn -0.3035 0.1876 -0.9342
vn 0.7946 0.1876 -0.5774
vn 0.4911 0.7947 0.3568
vn -0.1876 0.7947 0.5774
vn -0.6071 0.7947 0.0000
vn -0.1876 0.7947 -0.5774
vn 0.4911 0.7947 -0.3568
usemtl fruit
s off
f 85//141 86//141 87//141
f 86//142 85//142 90//142
f 85//143 87//143 88//143
f 85//144 88//144 89//144
f 85//145 89//145 90//145
f 86//146 90//146 95//146
f 87//147 86//147 91//147
f 88//148 87//148 92//148
f 89//149 88//149 93//149
f 90//150 89//150 94//150
f 86//151 95//151 91//151
f 87//152 91//152 92//152
f 88//153 92//153 93//153
f 89//154 93//154 94//154
f 90//155 94//155 95//155
f 91//156 95//156 96//156
f 92//157 91//157 96//157
f 93//158 92//158 96//158
f 94//159 93//159 96//159
f 95//160 94//160 96//160
o Icosphere.001
v -0.618043 -0.331911 0.292285
v -0.244624 -0.046642 0.563586
v -0.760673 -0.046642 0.731264
v -1.079618 -0.046642 0.292285
v -0.760673 -0.046642 -0.146694
v -0.244624 -0.046642 0.020983
v -0.475412 0.414935 0.731264
v -0.991462 0.414935 0.563586
v -0.991462 0.414935 0.020983
v -0.475412 0.414935 -0.146694
v -0.156468 0.414935 0.292285
v -0.618043 0.700204 0.292285
vn 0.1876 -0.7947 0.5774
vn 0.6071 -0.7947 0.0000
vn -0.4911 -0.7947 0.3568
vn -0.4911 -0.7947 -0.3568
vn 0.1876 -0.7947 -0.5774
vn 0.9822 -0.1876 0.0000
vn 0.3035 -0.1876 0.9342
vn -0.7946 -0.1876 0.5774
vn -0.7946 -0.1876 -0.5774
vn 0.3035 -0.1876 -0.9342
vn 0.7946 0.1876 0.5774
vn -0.3035 0.1876 0.9342
vn -0.9822 0.1876 0.0000
vn -0.3035 0.1876 -0.9342
vn 0.7946 0.1876 -0.5774
vn 0.4911 0.7947 0.3568
vn -0.1876 0.7947 0.5774
vn -0.6071 0.7947 0.0000
vn -0.1876 0.7947 -0.5774
vn 0.4911 0.7947 -0.3568
usemtl fruit
s off
f 97//161 98//161 99//161
f 98//162 97//162 102//162
f 97//163 99//163 100//163
f 97//164 100//164 101//164
f 97//165 101//165 102//165
f 98//166 102//166 107//166
f 99//167 98//167 103//167
f 100//168 99//168 104//168
f 101//169 100//169 105//169
f 102//170 101//170 106//170
f 98//171 107//171 103//171
f 99//172 103//172 104//172
f 100//173 104//173 105//173
f 101//174 105//174 106//174
f 102//175 106//175 107//175
f 103//176 107//176 108//176
f 104//177 103//177 108//177
f 105//178 104//178 108//178
f 106//179 105//179 108//179
f 107//180 106//180 108//180
o Icosphere
v 0.000000 -0.516057 0.000000
v 0.373419 -0.230789 0.271302
v -0.142631 -0.230789 0.438979
v -0.461575 -0.230789 0.000000
v -0.142631 -0.230789 -0.438979
v 0.373419 -0.230789 -0.271302
v 0.142631 0.230789 0.438979
v -0.373419 0.230789 0.271302
v -0.373419 0.230789 -0.271302
v 0.142631 0.230789 -0.438979
v 0.461575 0.230789 0.000000
v 0.000000 0.516057 0.000000
vn 0.1876 -0.7947 0.5774
vn 0.6071 -0.7947 0.0000
vn -0.4911 -0.7947 0.3568
vn -0.4911 -0.7947 -0.3568
vn 0.1876 -0.7947 -0.5774
vn 0.9822 -0.1876 0.0000
vn 0.3035 -0.1876 0.9342
vn -0.7946 -0.1876 0.5774
vn -0.7946 -0.1876 -0.5774
vn 0.3035 -0.1876 -0.9342
vn 0.7946 0.1876 0.5774
vn -0.3035 0.1876 0.9342
vn -0.9822 0.1876 0.0000
vn -0.3035 0.1876 -0.9342
vn 0.7946 0.1876 -0.5774
vn 0.4911 0.7947 0.3568
vn -0.1876 0.7947 0.5774
vn -0.6071 0.7947 0.0000
vn -0.1876 0.7947 -0.5774
vn 0.4911 0.7947 -0.3568
usemtl fruit
s off
f 109//181 110//181 111//181
f 110//182 109//182 114//182
f 109//183 111//183 112//183
f 109//184 112//184 113//184
f 109//185 113//185 114//185
f 110//186 114//186 119//186
f 111//187 110//187 115//187
f 112//188 111//188 116//188
f 113//189 112//189 117//189
f 114//190 113//190 118//190
f 110//191 119//191 115//191
f 111//192 115//192 116//192
f 112//193 116//193 117//193
f 113//194 117//194 118//194
f 114//195 118//195 119//195
f 115//196 119//196 120//196
f 116//197 115//197 120//197
f 117//198 116//198 120//198
f 118//199 117//199 120//199
f 119//200 118//200 120//200
o Plane
v 0.197347 1.481122 0.470659
v -0.270096 1.488602 0.313120
v 0.325974 1.515528 0.018722
v -0.112641 1.539146 -0.151671
v 0.174369 1.339525 0.385643
v -0.193556 1.345412 0.261644
v 0.298302 1.379308 0.019805
v -0.069623 1.385195 -0.104194
v 0.149344 1.209303 0.350318
v -0.166890 1.214364 0.243740
v 0.255865 1.243497 0.035878
v -0.060369 1.248558 -0.070701
v 0.106155 1.037067 0.337701
v -0.129843 1.040844 0.258164
v 0.185648 1.062585 0.103042
v -0.050349 1.066362 0.023506
v 0.003754 0.763544 0.463340
v -0.132264 0.765720 0.417499
v 0.049571 0.778251 0.328094
v -0.086448 0.780428 0.282252
v -0.118562 0.585151 0.593035
v -0.118562 0.585151 0.593035
v -0.118562 0.585151 0.593035
v -0.118562 0.585151 0.593035
vn 0.0007 0.9957 0.0925
vn 0.3095 -0.2066 -0.9282
vn -0.8758 -0.3479 -0.3345
vn 0.9313 -0.2498 0.2650
vn 0.3351 -0.1382 -0.9320
vn -0.2906 -0.4574 0.8404
vn 0.2824 -0.4283 -0.8584
vn -0.3162 -0.1913 0.9292
vn -0.9323 -0.1444 -0.3315
vn 0.9239 -0.2549 0.2853
vn -0.9245 -0.1849 -0.3333
vn -0.3192 0.0106 0.9476
vn -0.9156 -0.2233 -0.3344
vn 0.9244 -0.2527 0.2857
vn 0.1595 -0.8432 -0.5133
vn 0.9319 -0.2146 0.2924
vn 0.2277 -0.6690 -0.7075
vn -0.2725 0.4840 0.8316
vn 0.0000 0.0000 1.0000
vn -0.2275 0.6698 0.7068
vn -0.8588 -0.3891 -0.3332
vn 0.8737 -0.4168 0.2507
usemtl tige
s off
f 124//201 122//201 121//201 123//201
f 128//202 127//202 131//202 132//202
f 122//203 124//203 128//203 126//203
f 123//204 121//204 125//204 127//204
f 124//205 123//205 127//205 128//205
f 121//206 122//206 126//206 125//206
f 132//207 131//207 135//207 136//207
f 125//208 126//208 130//208 129//208
f 126//209 128//209 132//209 130//209
f 127//210 125//210 129//210 131//210
f 134//211 136//211 140//211 138//211
f 129//212 130//212 134//212 133//212
f 130//213 132//213 136//213 134//213
f 131//214 129//214 133//214 135//214
f 140//215 139//215 143//215 144//215
f 135//216 133//216 137//216 139//216
f 136//217 135//217 139//217 140//217
f 133//218 134//218 138//218 137//218
f 144//219 143//219 141//219 142//219
f 137//220 138//220 142//220 141//220
f 138//221 140//221 144//221 142//221
f 139//222 137//222 141//222 143//222
