# Blender v2.79 (sub 0) OBJ File: 'emerald.blend'
# www.blender.org
mtllib emerald.mtl
o Plane
v 0.000000 0.000000 3.000000
v 1.500000 0.000000 3.000000
v 0.000000 0.000000 -3.000000
v -1.500000 0.000000 -3.000000
v -3.000000 0.000000 -1.500000
v -3.000000 0.000000 0.000000
v 3.000000 0.000000 1.500000
v 3.000000 0.000000 0.000000
v -1.500000 0.000000 1.500000
v -1.500000 1.140037 0.000000
v -1.500000 1.000000 -1.500000
v 0.000000 1.140037 1.500000
v 0.000000 1.296815 0.000000
v 0.000000 1.140037 -1.500000
v 1.500000 1.000000 1.500000
v 1.500000 1.140037 0.000000
v 1.500000 0.000000 -1.500000
v 3.000000 -0.000368 0.000000
v 2.999999 -0.000367 1.500000
v -3.000000 -0.000368 -0.000000
v -3.000000 -0.000368 -1.500000
v -1.500000 -0.000368 -3.000000
v -0.000000 -0.000368 -3.000000
v 1.499999 -0.000367 3.000000
v -0.000001 -0.000367 3.000000
v 1.500000 -0.000368 -1.500000
v -0.000000 -1.140405 -1.500000
v -1.500000 -1.000368 -1.500000
v 1.500000 -1.140405 0.000000
v -0.000000 -1.297183 0.000000
v -1.500000 -1.140405 0.000000
v 1.500000 -1.000368 1.500000
v -0.000000 -1.140404 1.500000
v -1.500001 -0.000367 1.500000
vn -0.5177 0.6812 0.5177
vn -0.4851 0.7276 -0.4851
vn -0.0380 0.8135 -0.5803
vn 0.5177 0.6812 -0.5177
vn 0.0380 0.8135 0.5803
vn 0.0980 0.9904 0.0980
vn 0.3688 0.8532 -0.3688
vn -0.3688 0.8532 0.3688
vn -0.0980 0.9904 -0.0980
vn -0.5803 0.8135 -0.0380
vn 0.4851 0.7276 0.4851
vn 0.5803 0.8135 0.0380
vn 0.5177 -0.6812 -0.5177
vn -0.4851 -0.7276 -0.4851
vn -0.5803 -0.8135 -0.0380
vn -0.5177 -0.6812 0.5177
vn 0.5803 -0.8135 0.0380
vn 0.0980 -0.9904 0.0980
vn -0.3688 -0.8532 0.3688
vn 0.3688 -0.8532 -0.3688
vn -0.0980 -0.9904 -0.0980
vn -0.0380 -0.8135 -0.5803
vn 0.4851 -0.7276 0.4851
vn 0.0380 -0.8135 0.5803
usemtl Piece
s off
f 9//1 1//1 12//1
f 4//2 5//2 11//2
f 11//3 14//3 3//3 4//3
f 14//4 17//4 3//4
f 1//5 2//5 15//5 12//5
f 12//6 15//6 16//6 13//6
f 13//7 16//7 17//7 14//7
f 9//8 12//8 13//8 10//8
f 10//9 13//9 14//9 11//9
f 17//4 16//4 8//4
f 6//10 10//10 11//10 5//10
f 7//11 15//11 2//11
f 15//12 7//12 8//12 16//12
f 10//1 6//1 9//1
f 26//13 18//13 29//13
f 21//14 22//14 28//14
f 28//15 31//15 20//15 21//15
f 31//16 34//16 20//16
f 18//17 19//17 32//17 29//17
f 29//18 32//18 33//18 30//18
f 30//19 33//19 34//19 31//19
f 26//20 29//20 30//20 27//20
f 27//21 30//21 31//21 28//21
f 34//16 33//16 25//16
f 23//22 27//22 28//22 22//22
f 24//23 32//23 19//23
f 32//24 24//24 25//24 33//24
f 27//13 23//13 26//13
l 1 6
l 3 8
l 18 23
l 20 25
