# Blender v2.79 (sub 0) OBJ File: '.'
# www.blender.org
mtllib ruby.mtl
o Plane
v -2.121320 0.000000 0.000000
v -2.121320 -1.500000 1.500000
v -1.060660 0.056128 1.556128
v 1.060660 2.250000 -2.250000
v -1.060660 2.250000 -2.250000
v 0.000000 2.207107 -0.792893
v 1.060660 1.556128 0.056128
v 2.121320 1.500000 -1.500000
v 2.121320 0.000000 -0.000000
v -1.060660 -2.250000 2.250000
v 0.000000 -0.792893 2.207107
v 1.060660 0.056128 1.556128
v 0.000000 0.916987 0.916987
v -1.060660 1.556128 0.056128
v 2.121320 -1.500000 1.500000
v -2.121320 1.500000 -1.500000
v 1.060660 -2.250000 2.250000
v 2.121320 -0.000260 -0.000260
v 2.121320 -1.500260 1.499740
v 1.060660 -1.556388 -0.056388
v -1.060660 2.249740 -2.250260
v 1.060660 2.249740 -2.250261
v -0.000000 0.792633 -2.207367
v -1.060660 -0.056388 -1.556388
v -2.121320 1.499740 -1.500260
v -2.121321 -0.000259 -0.000260
v 1.060660 -2.250259 2.249740
v 0.000000 -2.207367 0.792633
v -1.060660 -1.556387 -0.056387
v -0.000000 -0.917247 -0.917247
v 1.060660 -0.056388 -1.556388
v -2.121321 -1.500259 1.499740
v 2.121320 1.499740 -1.500261
v -1.060661 -2.250259 2.249740
vt 0.282159 0.564416
vt 0.474758 0.587533
vt 0.363389 0.701016
vt 0.000099 0.876065
vt 0.000099 0.688251
vt 0.116220 0.782158
vt 0.200928 0.863301
vt 0.089560 0.976784
vt 0.282158 0.999901
vt 0.564218 0.688252
vt 0.448097 0.782159
vt 0.363389 0.863301
vt 0.282159 0.782159
vt 0.200928 0.701016
vt 0.474758 0.976784
vt 0.089560 0.587533
vt 0.564218 0.876066
vt 0.435584 0.282159
vt 0.412467 0.474758
vt 0.298984 0.363389
vt 0.123934 0.000099
vt 0.311748 0.000099
vt 0.217841 0.116220
vt 0.136699 0.200928
vt 0.023216 0.089560
vt 0.000099 0.282159
vt 0.311748 0.564218
vt 0.217841 0.448097
vt 0.136699 0.363389
vt 0.217841 0.282159
vt 0.298984 0.200928
vt 0.023216 0.474758
vt 0.412467 0.089560
vt 0.123934 0.564218
vn -0.7321 0.4817 0.4817
vn 0.0000 0.9996 0.0294
vn 0.3835 0.8844 0.2661
vn 0.7321 0.4817 0.4817
vn -0.3835 0.2661 0.8844
vn 0.0000 0.6023 0.7983
vn 0.5216 0.6033 0.6033
vn -0.5216 0.6033 0.6033
vn 0.0000 0.7983 0.6023
vn -0.3835 0.8844 0.2661
vn 0.0000 0.0294 0.9996
vn 0.3835 0.2661 0.8844
vn 0.7321 -0.4817 -0.4817
vn -0.0000 -0.0294 -0.9996
vn -0.3835 -0.2661 -0.8844
vn -0.7321 -0.4817 -0.4817
vn 0.3835 -0.8844 -0.2661
vn -0.0000 -0.7983 -0.6023
vn -0.5216 -0.6033 -0.6033
vn 0.5216 -0.6033 -0.6033
vn -0.0000 -0.6023 -0.7983
vn 0.3835 -0.2661 -0.8844
vn -0.0000 -0.9996 -0.0294
vn -0.3835 -0.8844 -0.2661
usemtl Piece
s 1
f 1/1/1 2/2/1 3/3/1
f 4/4/2 5/5/2 6/6/2
f 6/6/3 7/7/3 8/8/3 4/4/3
f 7/7/4 9/9/4 8/8/4
f 2/2/5 10/10/5 11/11/5 3/3/5
f 3/3/6 11/11/6 12/12/6 13/13/6
f 13/13/7 12/12/7 9/9/7 7/7/7
f 1/1/8 3/3/8 13/13/8 14/14/8
f 14/14/9 13/13/9 7/7/9 6/6/9
f 9/9/4 12/12/4 15/15/4
f 16/16/10 14/14/10 6/6/10 5/5/10
f 17/17/11 11/11/11 10/10/11
f 11/11/12 17/17/12 15/15/12 12/12/12
f 14/14/1 16/16/1 1/1/1
f 18/18/13 19/19/13 20/20/13
f 21/21/14 22/22/14 23/23/14
f 23/23/15 24/24/15 25/25/15 21/21/15
f 24/24/16 26/26/16 25/25/16
f 19/19/17 27/27/17 28/28/17 20/20/17
f 20/20/18 28/28/18 29/29/18 30/30/18
f 30/30/19 29/29/19 26/26/19 24/24/19
f 18/18/20 20/20/20 30/30/20 31/31/20
f 31/31/21 30/30/21 24/24/21 23/23/21
f 26/26/16 29/29/16 32/32/16
f 33/33/22 31/31/22 23/23/22 22/22/22
f 34/34/23 28/28/23 27/27/23
f 28/28/24 34/34/24 32/32/24 29/29/24
f 31/31/13 33/33/13 18/18/13
