# Blender v2.79 (sub 0) OBJ File: 'tentacle.blend'
# www.blender.org
mtllib tentacle.mtl
o Plane.002
v 0.949459 0.351069 0.404489
v 0.949682 1.391935 0.403533
v 0.890188 0.611531 0.657613
v 1.008842 0.611040 0.150886
v 1.008954 1.131473 0.150408
v 0.890300 1.131964 0.657135
v 1.297843 0.871502 0.485561
v 0.917367 0.340441 -0.347333
v 0.917022 1.381308 -0.348252
v 1.008550 0.600903 -0.103878
v 0.826012 0.600413 -0.591249
v 0.825840 1.120846 -0.591708
v 1.008377 1.121336 -0.104337
v 1.252164 0.860874 -0.473250
v 0.733193 2.147222 0.296625
v 0.733438 2.992821 0.295866
v 0.668415 2.358821 0.497646
v 0.798093 2.358423 0.095225
v 0.798216 2.781222 0.094845
v 0.668537 2.781620 0.497266
v 1.009898 2.570022 0.385373
v 0.757070 2.138588 -0.314244
v 0.756851 2.984187 -0.315011
v 0.814753 2.350187 -0.111074
v 0.699277 2.349789 -0.517797
v 0.699167 2.772588 -0.518181
v 0.814643 2.772986 -0.111457
v 1.036501 2.561387 -0.393993
v 0.674312 3.476425 0.211627
v 0.674477 4.160674 0.211004
v 0.630235 3.647648 0.376747
v 0.718468 3.647326 0.046196
v 0.718552 3.989450 0.045884
v 0.630319 3.989772 0.376435
v 0.901581 3.818549 0.271957
v 0.668460 3.469438 -0.283024
v 0.668251 4.153687 -0.283634
v 0.723439 3.640662 -0.121208
v 0.613375 3.640339 -0.445145
v 0.613272 3.982464 -0.445450
v 0.723334 3.982786 -0.121514
v 0.890997 3.811563 -0.358976
v 0.791368 4.759621 0.155656
v 0.901776 5.264095 0.147209
v 0.795542 4.892990 0.280315
v 0.842399 4.878489 0.026774
v 0.897604 5.130725 0.022550
v 0.850746 5.145226 0.276091
v 1.016942 4.975133 0.185019
v 0.759037 4.755415 -0.216353
v 0.869173 5.259951 -0.224771
v 0.835876 4.872773 -0.099444
v 0.737266 4.890326 -0.337471
v 0.792335 5.142593 -0.341681
v 0.890942 5.125040 -0.103653
v 0.973719 4.971693 -0.289340
v 1.154242 5.806943 0.148086
v 1.360341 6.217997 0.152051
v 1.180884 5.921105 0.260734
v 1.230649 5.898307 0.037421
v 1.333700 6.103833 0.039403
v 1.283935 6.126633 0.262716
v 1.394355 5.943384 0.187665
v 1.143913 5.810410 -0.184220
v 1.349793 6.221578 -0.180241
v 1.230035 5.894807 -0.075164
v 1.160732 5.931598 -0.291285
v 1.263672 6.137182 -0.289296
v 1.332973 6.100391 -0.073175
v 1.379885 5.949903 -0.236140
vn 0.8025 0.5664 0.1874
vn 0.3884 0.0008 0.9215
vn 0.8023 -0.5664 0.1884
vn 0.7572 -0.0008 -0.6532
vn 0.7716 0.5664 -0.2896
vn 0.8345 0.0008 0.5509
vn 0.7720 -0.5664 -0.2886
vn 0.2673 -0.0008 -0.9636
vn 0.7846 0.5664 0.2523
vn 0.3119 0.0008 0.9501
vn 0.7842 -0.5664 0.2533
vn 0.8080 -0.0008 -0.5892
vn 0.7926 0.5664 -0.2256
vn 0.7868 0.0008 0.6172
vn 0.7929 -0.5664 -0.2246
vn 0.3451 -0.0008 -0.9386
vn 0.7964 0.5664 0.2120
vn 0.3598 0.0008 0.9330
vn 0.7961 -0.5664 0.2131
vn 0.7769 -0.0008 -0.6296
vn 0.7801 0.5664 -0.2656
vn 0.8172 0.0008 0.5764
vn 0.7805 -0.5664 -0.2646
vn 0.2969 -0.0008 -0.9549
vn 0.9121 0.3827 0.1467
vn 0.4180 -0.0763 0.9053
vn 0.6700 -0.7238 0.1652
vn 0.7114 -0.1671 -0.6826
vn 0.8619 0.3862 -0.3286
vn 0.8378 -0.1743 0.5174
vn 0.6203 -0.7204 -0.3101
vn 0.2203 -0.0643 -0.9733
vn 0.9687 0.1460 0.2010
vn 0.3352 -0.1770 0.9254
vn 0.4609 -0.8666 0.1912
vn 0.6853 -0.3374 -0.6454
vn 0.9474 0.1618 -0.2762
vn 0.7390 -0.3754 0.5594
vn 0.4402 -0.8511 -0.2860
vn 0.2515 -0.1166 -0.9608
usemtl Material.001
s off
f 7//1 5//1 2//1 6//1
f 6//2 3//2 7//2
f 1//3 4//3 7//3 3//3
f 7//4 4//4 5//4
f 14//5 12//5 9//5 13//5
f 13//6 10//6 14//6
f 8//7 11//7 14//7 10//7
f 14//8 11//8 12//8
f 21//9 19//9 16//9 20//9
f 20//10 17//10 21//10
f 15//11 18//11 21//11 17//11
f 21//12 18//12 19//12
f 28//13 26//13 23//13 27//13
f 27//14 24//14 28//14
f 22//15 25//15 28//15 24//15
f 28//16 25//16 26//16
f 35//17 33//17 30//17 34//17
f 34//18 31//18 35//18
f 29//19 32//19 35//19 31//19
f 35//20 32//20 33//20
f 42//21 40//21 37//21 41//21
f 41//22 38//22 42//22
f 36//23 39//23 42//23 38//23
f 42//24 39//24 40//24
f 49//25 47//25 44//25 48//25
f 48//26 45//26 49//26
f 43//27 46//27 49//27 45//27
f 49//28 46//28 47//28
f 56//29 54//29 51//29 55//29
f 55//30 52//30 56//30
f 50//31 53//31 56//31 52//31
f 56//32 53//32 54//32
f 63//33 61//33 58//33 62//33
f 62//34 59//34 63//34
f 57//35 60//35 63//35 59//35
f 63//36 60//36 61//36
f 70//37 68//37 65//37 69//37
f 69//38 66//38 70//38
f 64//39 67//39 70//39 66//39
f 70//40 67//40 68//40
o Plane.001
v -0.639357 0.053618 0.697904
v 1.131236 0.014717 0.931679
v -0.488921 0.010047 -0.614183
v 1.012950 0.020232 -0.873910
v -0.636405 0.008471 -0.008619
v 0.215285 -0.002237 0.904280
v 1.248356 -0.029591 -0.026614
v 0.210259 0.001622 -0.887237
v 0.226994 0.065068 0.001983
v -0.481309 0.902299 0.565280
v 0.986732 0.890589 0.835897
v -0.471907 0.892548 -0.650121
v 0.970416 0.867660 -0.782326
v -0.583234 0.906682 0.002338
v 0.206935 0.912828 0.801745
v 1.162052 0.882928 0.016810
v 0.246205 0.920557 -0.740223
v -0.301571 2.748746 0.435339
v -0.500511 1.667094 0.563954
v 0.956953 1.656696 0.779485
v -0.370442 1.671337 -0.568426
v 0.939005 1.639273 -0.729511
v -0.594054 1.671984 -0.035328
v 0.225688 1.640478 0.745072
v 1.138652 1.661558 0.045125
v 0.212179 1.665121 -0.747521
v -0.166891 3.912596 0.417769
v 0.827319 2.707265 0.603954
v -0.214290 2.694563 -0.325362
v 0.843536 2.713699 -0.645145
v -0.403431 2.716178 0.095841
v 0.076116 2.694354 0.567831
v 0.948127 2.665432 -0.046497
v 0.233445 2.734573 -0.700101
v 0.046958 5.040766 0.357915
v 0.713336 3.953341 0.467127
v -0.282563 3.918296 -0.251667
v 0.705146 3.957378 -0.538213
v -0.282906 3.899840 0.014399
v 0.218223 3.917291 0.485954
v 0.856046 3.929494 -0.039513
v 0.238074 3.958598 -0.465533
v 0.405535 5.525960 0.265773
v 0.884390 5.021115 0.357313
v 0.086577 5.043615 -0.156947
v 0.849224 5.042854 -0.391633
v 0.079809 5.017529 -0.015214
v 0.451477 5.031105 0.314201
v 0.996673 5.027776 0.000356
v 0.525003 4.994005 -0.435338
v 0.756426 6.169641 0.242315
v 1.072764 5.592754 0.386981
v 0.310234 5.539146 -0.265222
v 1.061178 5.527492 -0.342090
v 0.319443 5.559002 -0.030926
v 0.678164 5.588802 0.370210
v 1.213275 5.583511 -0.046253
v 0.668897 5.566055 -0.354608
v 1.430398 6.702392 0.137260
v 1.311173 6.118162 0.356600
v 0.676850 6.127685 -0.184199
v 1.338700 6.159899 -0.345389
v 0.656184 6.131080 -0.002788
v 1.034582 6.121941 0.289424
v 1.498569 6.189859 -0.014399
v 0.969362 6.100776 -0.332801
v 2.426176 7.068860 0.097963
v 1.837225 6.680452 0.217211
v 1.350904 6.686605 -0.226298
v 1.837064 6.715596 -0.284287
v 1.379899 6.644922 -0.055216
v 1.581792 6.619924 0.012291
v 1.949995 6.682851 -0.004140
v 1.556649 6.718248 -0.233885
v 3.067922 7.126801 0.048832
v 2.631846 7.053256 0.113430
v 2.656896 7.062663 -0.143189
v 2.620163 7.045403 0.006370
v 2.322105 7.085409 0.009401
v 2.510714 7.079895 0.029293
v 2.782246 7.028319 0.067536
v 2.495447 7.030468 0.060659
v 3.279553 7.194550 -0.016420
v 3.114361 7.193912 0.045257
v 3.011096 7.147792 0.005862
v 3.079465 7.161407 -0.015709
v 3.057660 7.159097 -0.008548
v 3.114254 7.171260 0.006406
v 3.101564 7.202452 0.010656
v 3.037204 7.150749 -0.012381
v 3.153541 7.195795 -0.005122
v 3.178769 7.185099 -0.014445
v 3.156105 7.188796 0.022333
v 3.184905 7.194046 -0.043996
v 3.298890 7.236591 -0.020952
v 3.185578 7.189450 0.008401
v 3.178316 7.204329 -0.017217
v 3.140941 7.192420 0.006864
vn -0.0415 -0.9990 0.0139
vn 0.0383 -0.9983 0.0447
vn 0.0022 -0.9999 -0.0138
vn -0.0401 -0.9991 -0.0151
vn -0.9861 -0.0151 0.1657
vn 0.9691 0.0469 -0.2421
vn -0.9601 0.0641 -0.2721
vn 0.9739 0.0376 0.2238
vn -0.0157 0.1338 -0.9909
vn -0.2687 0.1497 0.9515
vn -0.2485 0.0669 -0.9663
vn -0.0357 0.1070 0.9936
vn 0.9788 0.1309 0.1572
vn -0.9788 0.0357 -0.2017
vn 0.9645 0.0897 -0.2483
vn -0.9895 0.1247 0.0731
vn -0.9647 0.1765 0.1956
vn 0.9682 0.1325 -0.2120
vn -0.8933 0.2207 -0.3915
vn 0.9626 0.1767 0.2055
vn -0.0150 0.0294 -0.9995
vn -0.2826 0.0372 0.9585
vn -0.2032 0.0567 -0.9775
vn -0.0449 0.0751 0.9962
vn 0.9721 0.0910 0.2162
vn -0.0173 0.0884 0.9959
vn -0.5228 0.0931 -0.8474
vn -0.2496 0.0692 0.9659
vn 0.0566 0.0632 -0.9964
vn -0.2608 0.1428 0.9548
vn -0.4714 0.1603 -0.8672
vn -0.0500 0.1587 0.9861
vn -0.4472 0.1864 -0.8748
vn -0.0301 0.1087 0.9936
vn -0.0419 0.0914 -0.9949
vn -0.9636 0.2510 0.0916
vn -0.9638 0.0201 -0.2658
vn 0.9706 0.0992 -0.2191
vn -0.9551 0.1153 0.2731
vn -0.0135 0.1364 -0.9906
vn -0.8581 0.5079 0.0756
vn 0.8646 -0.3552 -0.3554
vn -0.9124 0.4091 0.0127
vn 0.9022 -0.3197 0.2897
vn -0.0297 0.1334 0.9906
vn 0.9505 -0.1276 0.2832
vn -0.9507 0.3097 0.0172
vn 0.9425 -0.0955 -0.3203
vn 0.8488 -0.3771 -0.3707
vn -0.8518 0.5212 -0.0526
vn 0.8598 -0.3983 0.3196
vn -0.1223 0.1714 0.9776
vn 0.0765 0.0966 -0.9924
vn -0.0958 0.0881 0.9915
vn -0.4132 0.1190 -0.9028
vn -0.0724 -0.0489 0.9962
vn -0.3982 0.6553 0.6419
vn -0.2835 0.3472 -0.8939
vn 0.2099 0.1115 0.9713
vn -0.1141 0.2372 -0.9647
vn -0.8354 0.4714 0.2825
vn -0.0005 0.0161 -0.9999
vn -0.2636 0.2412 0.9340
vn -0.3297 0.2784 -0.9021
vn 0.3101 -0.7050 0.6379
vn -0.1529 0.8576 -0.4910
vn -0.3841 0.9200 0.0773
vn 0.4283 -0.7785 -0.4588
vn 0.7202 -0.6321 0.2859
vn -0.6015 0.7926 0.1003
vn 0.7127 -0.6237 -0.3210
vn -0.5970 0.8017 0.0297
vn -0.0708 0.9279 0.3661
vn 0.2910 -0.8819 -0.3709
vn -0.0846 0.9120 -0.4013
vn 0.3484 -0.6022 0.7183
vn 0.3033 -0.9502 -0.0711
vn -0.3823 0.8328 0.4003
vn 0.3709 -0.8207 0.4345
vn -0.3166 0.9162 -0.2455
vn 0.1957 -0.9586 -0.2069
vn -0.2067 -0.9357 -0.2861
vn -0.3649 0.1527 -0.9184
vn -0.1800 0.7782 0.6017
vn -0.2461 0.9201 -0.3046
vn 0.0908 -0.9295 -0.3574
vn 0.2227 -0.9748 0.0089
vn -0.1867 0.9586 0.2152
vn -0.3740 0.7520 0.5428
vn -0.0246 0.9312 -0.3636
vn 0.1268 -0.7131 0.6895
vn -0.4187 0.8880 -0.1902
vn -0.2152 -0.0249 0.9762
vn -0.1222 0.8706 0.4767
vn 0.3727 -0.8698 -0.3234
vn -0.0618 -0.4395 -0.8961
usemtl Material
s off
f 79//41 78//41 74//41 77//41
f 75//42 73//42 78//42 79//42
f 71//43 75//43 79//43 76//43
f 76//44 79//44 77//44 72//44
f 84//45 80//45 89//45 93//45
f 86//46 83//46 92//46 95//46
f 82//47 84//47 93//47 91//47
f 81//48 86//48 95//48 90//48
f 74//49 78//49 87//49 83//49
f 71//50 76//50 85//50 80//50
f 78//51 73//51 82//51 87//51
f 76//52 72//52 81//52 85//52
f 72//53 77//53 86//53 81//53
f 73//54 75//54 84//54 82//54
f 77//55 74//55 83//55 86//55
f 75//56 71//56 80//56 84//56
f 93//57 89//57 88//57 101//57
f 95//58 92//58 100//58 103//58
f 91//59 93//59 101//59 99//59
f 90//60 95//60 103//60 98//60
f 83//61 87//61 96//61 92//61
f 80//62 85//62 94//62 89//62
f 87//63 82//63 91//63 96//63
f 85//64 81//64 90//64 94//64
f 98//65 103//65 111//65 106//65
f 102//66 98//66 106//66 110//66
f 104//67 99//67 107//67 112//67
f 88//68 102//68 110//68 97//68
f 92//69 96//69 104//69 100//69
f 89//70 94//70 102//70 88//70
f 96//71 91//71 99//71 104//71
f 94//72 90//72 98//72 102//72
f 112//73 107//73 115//73 120//73
f 97//74 110//74 118//74 105//74
f 108//75 112//75 120//75 116//75
f 109//76 97//76 105//76 117//76
f 99//77 101//77 109//77 107//77
f 103//78 100//78 108//78 111//78
f 101//79 88//79 97//79 109//79
f 100//80 104//80 112//80 108//80
f 117//81 105//81 113//81 125//81
f 119//82 116//82 124//82 127//82
f 115//83 117//83 125//83 123//83
f 114//84 119//84 127//84 122//84
f 110//85 106//85 114//85 118//85
f 106//86 111//86 119//86 114//86
f 107//87 109//87 117//87 115//87
f 111//88 108//88 116//88 119//88
f 127//89 124//89 132//89 135//89
f 123//90 125//90 133//90 131//90
f 122//91 127//91 135//91 130//91
f 126//92 122//92 130//92 134//92
f 116//93 120//93 128//93 124//93
f 105//94 118//94 126//94 113//94
f 120//95 115//95 123//95 128//95
f 118//96 114//96 122//96 126//96
f 134//97 130//97 138//97 142//97
f 136//98 131//98 139//98 144//98
f 121//99 134//99 142//99 129//99
f 132//100 136//100 144//100 140//100
f 125//101 113//101 121//101 133//101
f 124//102 128//102 136//102 132//102
f 113//103 126//103 134//103 121//103
f 128//104 123//104 131//104 136//104
f 129//105 142//105 150//105 137//105
f 140//106 144//106 152//106 148//106
f 141//107 129//107 137//107 149//107
f 143//108 140//108 148//108 151//108
f 130//109 135//109 143//109 138//109
f 131//110 133//110 141//110 139//110
f 135//111 132//111 140//111 143//111
f 133//112 121//112 129//112 141//112
f 149//113 137//113 145//113 157//113
f 151//114 148//114 156//114 159//114
f 147//115 149//115 157//115 155//115
f 146//116 151//116 159//116 154//116
f 144//117 139//117 147//117 152//117
f 142//118 138//118 146//118 150//118
f 138//119 143//119 151//119 146//119
f 139//120 141//120 149//120 147//120
f 155//121 157//121 164//121 162//121
f 154//122 159//122 166//122 161//122
f 158//123 154//123 161//123 165//123
f 160//124 155//124 162//124 167//124
f 148//125 152//125 160//125 156//125
f 137//126 150//126 158//126 145//126
f 152//127 147//127 155//127 160//127
f 150//128 146//128 154//128 158//128
f 168//129 166//129 163//129 167//129
f 164//130 168//130 167//130 162//130
f 153//131 165//131 168//131 164//131
f 165//132 161//132 166//132 168//132
f 159//133 156//133 163//133 166//133
f 157//134 145//134 153//134 164//134
f 156//135 160//135 167//135 163//135
f 145//136 158//136 165//136 153//136
o Plane
v -0.675884 0.017421 0.701856
v 1.104733 -0.003490 0.936954
v -0.524597 0.010104 -0.617660
v 0.985778 0.009987 -0.878859
v -0.672916 -0.015781 -0.008668
v 0.183596 -0.002250 0.909400
v 1.085940 -0.029759 -0.026764
v 0.178542 -0.005304 -0.892261
v 0.195372 0.034820 0.001994
v -0.516941 0.907408 0.568481
v 0.959412 0.895631 0.840629
v -0.507487 0.897601 -0.653802
v 0.943003 0.872573 -0.786756
v -0.619444 0.911816 0.002351
v 0.175199 0.917996 0.806284
v 0.999147 0.887927 0.016905
v 0.214691 0.925770 -0.744414
v -0.336186 2.764309 0.437804
v -0.536252 1.676533 0.567147
v 0.929463 1.666076 0.783898
v -0.405447 1.680800 -0.571644
v 0.911414 1.648555 -0.733642
v -0.630325 1.681451 -0.035528
v 0.194058 1.649766 0.749291
v 0.975614 1.670966 0.045381
v 0.180473 1.674549 -0.751753
v -0.200743 3.934749 0.420135
v 0.799095 2.722593 0.607374
v -0.248411 2.709820 -0.327204
v 0.815405 2.729064 -0.648798
v -0.438622 2.731557 0.096384
v 0.043639 2.709610 0.571046
v 0.784011 2.680524 -0.046760
v 0.201859 2.750056 -0.704065
v 0.014316 5.069307 0.359942
v 0.684467 3.975725 0.469772
v -0.317071 3.940481 -0.253092
v 0.676231 3.979785 -0.541260
v -0.317415 3.921921 0.014480
v 0.186551 3.939470 0.488705
v 0.691408 3.951742 -0.039737
v 0.206515 3.981011 -0.468169
v 0.374924 5.557248 0.267278
v 0.856490 5.049544 0.359336
v 0.054160 5.072172 -0.157836
v 0.821125 5.071406 -0.393851
v 0.047353 5.045938 -0.015300
v 0.421126 5.059591 0.395339
v 0.832832 5.056243 0.000358
v 0.495068 5.022281 -0.437803
v 0.727801 6.204573 0.243687
v 1.045930 5.624420 0.389172
v 0.279083 5.570509 -0.266724
v 1.034279 5.558788 -0.344026
v 0.288344 5.590477 -0.031101
v 0.649096 5.620445 0.372306
v 1.050660 5.615124 -0.046515
v 0.639776 5.597570 -0.438758
v 1.405589 6.740340 0.138037
v 1.285689 6.152803 0.358620
v 0.647774 6.162380 -0.185242
v 1.313372 6.194777 -0.347344
v 0.626992 6.165793 -0.002804
v 1.007532 6.156603 0.291063
v 1.337569 6.224906 -0.014480
v 0.941943 6.135318 -0.334685
v 2.407006 7.108883 0.098518
v 1.814719 6.718276 0.218441
v 1.325645 6.724464 -0.227579
v 1.814557 6.753620 -0.285896
v 1.354804 6.682545 -0.055529
v 1.557840 6.657406 0.307765
v 1.791552 6.720689 -0.004164
v 1.532556 6.756286 -0.235209
v 3.052384 7.167152 0.049108
v 2.613840 7.093191 0.114073
v 2.307608 7.085011 -0.144000
v 2.602090 7.119975 -0.162439
v 2.302346 7.125526 0.009454
v 2.492022 7.119981 0.160234
v 2.628514 7.019566 0.068070
v 2.476669 7.070274 -0.136104
v 3.299047 7.199434 -0.016513
v 3.099087 7.234643 0.045513
v 2.995238 7.141173 0.005895
v 3.063994 7.201955 -0.015798
v 3.042065 7.152003 -0.008596
v 3.098979 7.211864 0.006442
v 3.086218 7.243232 0.010716
v 3.021493 7.191236 -0.012451
v 3.138489 7.189185 -0.005151
v 3.163860 7.200729 -0.014526
v 3.141067 7.165877 0.022460
v 3.170030 7.234779 -0.044245
v 3.319619 7.246250 -0.021070
v 3.170707 7.230156 0.008449
v 3.163404 7.245120 -0.017315
v 3.125817 7.167324 0.006902
vn -0.0290 -0.9996 0.0022
vn 0.0243 -0.9996 0.0116
vn 0.0182 -0.9998 -0.0022
vn -0.0363 -0.9993 -0.0056
vn -0.9861 -0.0151 0.1657
vn 0.9963 0.0392 -0.0767
vn -0.9601 0.0641 -0.2721
vn 0.9979 0.0353 0.0548
vn -0.0154 0.1325 -0.9911
vn -0.2721 0.1469 0.9510
vn -0.2482 0.0666 -0.9664
vn -0.0346 0.1060 0.9938
vn 0.9919 0.1270 0.0092
vn -0.9789 0.0353 -0.2011
vn 0.9925 0.0793 -0.0925
vn -0.9899 0.1207 0.0745
vn -0.9647 0.1765 0.1956
vn 0.9905 0.1362 -0.0210
vn -0.8933 0.2207 -0.3915
vn 0.9876 0.1562 0.0179
vn -0.0150 0.0294 -0.9995
vn -0.2826 0.0372 0.9585
vn -0.2032 0.0567 -0.9775
vn -0.0449 0.0751 0.9962
vn 0.9966 0.0812 -0.0116
vn -0.0173 0.0884 0.9959
vn -0.5228 0.0931 -0.8474
vn -0.2496 0.0692 0.9659
vn 0.0566 0.0632 -0.9964
vn -0.2608 0.1428 0.9548
vn -0.4714 0.1603 -0.8672
vn -0.0500 0.1587 0.9861
vn -0.4472 0.1864 -0.8748
vn -0.1287 0.0929 0.9873
vn -0.0419 0.0914 -0.9949
vn -0.9636 0.2510 0.0916
vn -0.9638 0.0201 -0.2658
vn 0.9957 0.0906 0.0209
vn -0.9551 0.1153 0.2731
vn -0.0135 0.1364 -0.9906
vn -0.8581 0.5079 0.0756
vn 0.9245 -0.3808 -0.0149
vn -0.9124 0.4091 0.0127
vn 0.9408 -0.3383 -0.0213
vn 0.0563 0.0820 0.9950
vn 0.9896 -0.1429 -0.0162
vn -0.9507 0.3097 0.0172
vn 0.9914 -0.1262 -0.0358
vn 0.9105 -0.4136 -0.0019
vn -0.8518 0.5212 -0.0526
vn 0.9071 -0.4198 0.0309
vn -0.1223 0.1714 0.9776
vn 0.1892 -0.0186 -0.9818
vn -0.2137 0.2248 0.9507
vn -0.4879 0.0790 -0.8693
vn 0.0229 -0.0144 0.9996
vn 0.0316 0.0833 0.9960
vn -0.2835 0.3472 -0.8939
vn -0.2991 0.4276 0.8530
vn -0.1141 0.2372 -0.9647
vn -0.8354 0.4714 0.2825
vn 0.1056 0.0330 -0.9939
vn -0.2636 0.2412 0.9340
vn -0.4079 0.3787 -0.8308
vn -0.2874 0.7910 0.5402
vn -0.2068 0.7368 -0.6437
vn -0.3841 0.9200 0.0773
vn 0.3924 -0.8895 -0.2342
vn 0.7296 -0.6820 -0.0501
vn -0.6015 0.7926 0.1003
vn 0.7413 -0.6711 -0.0045
vn -0.5970 0.8017 0.0297
vn -0.0583 0.9967 0.0558
vn 0.3272 -0.9055 -0.2703
vn -0.0230 0.9400 -0.3404
vn 0.3588 -0.7232 0.5901
vn -0.0127 0.2951 -0.9554
vn 0.3367 -0.4476 0.8284
vn 0.3747 -0.8991 0.2265
vn -0.3864 0.9218 0.0323
vn 0.3080 -0.8270 -0.4703
vn -0.4606 -0.1909 -0.8668
vn 0.2884 0.0130 0.9574
vn -0.0003 0.2184 0.9758
vn -0.2695 0.9074 0.3224
vn -0.1955 0.6967 -0.6902
vn -0.1696 0.9767 0.1317
vn 0.0667 0.5069 0.8594
vn -0.4834 0.6905 0.5380
vn -0.7216 0.5680 -0.3957
vn 0.1252 -0.9291 -0.3481
vn 0.1329 0.4184 0.8985
vn -0.2196 -0.0076 0.9756
vn -0.1486 0.8803 0.4505
vn 0.1701 -0.4231 -0.8900
vn -0.1287 -0.3785 -0.9166
usemtl Material.001
s off
f 177//137 176//137 172//137 175//137
f 173//138 171//138 176//138 177//138
f 169//139 173//139 177//139 174//139
f 174//140 177//140 175//140 170//140
f 182//141 178//141 187//141 191//141
f 184//142 181//142 190//142 193//142
f 180//143 182//143 191//143 189//143
f 179//144 184//144 193//144 188//144
f 172//145 176//145 185//145 181//145
f 169//146 174//146 183//146 178//146
f 176//147 171//147 180//147 185//147
f 174//148 170//148 179//148 183//148
f 170//149 175//149 184//149 179//149
f 171//150 173//150 182//150 180//150
f 175//151 172//151 181//151 184//151
f 173//152 169//152 178//152 182//152
f 191//153 187//153 186//153 199//153
f 193//154 190//154 198//154 201//154
f 189//155 191//155 199//155 197//155
f 188//156 193//156 201//156 196//156
f 181//157 185//157 194//157 190//157
f 178//158 183//158 192//158 187//158
f 185//159 180//159 189//159 194//159
f 183//160 179//160 188//160 192//160
f 196//161 201//161 209//161 204//161
f 200//162 196//162 204//162 208//162
f 202//163 197//163 205//163 210//163
f 186//164 200//164 208//164 195//164
f 190//165 194//165 202//165 198//165
f 187//166 192//166 200//166 186//166
f 194//167 189//167 197//167 202//167
f 192//168 188//168 196//168 200//168
f 210//169 205//169 213//169 218//169
f 195//170 208//170 216//170 203//170
f 206//171 210//171 218//171 214//171
f 207//172 195//172 203//172 215//172
f 197//173 199//173 207//173 205//173
f 201//174 198//174 206//174 209//174
f 199//175 186//175 195//175 207//175
f 198//176 202//176 210//176 206//176
f 215//177 203//177 211//177 223//177
f 217//178 214//178 222//178 225//178
f 213//179 215//179 223//179 221//179
f 212//180 217//180 225//180 220//180
f 208//181 204//181 212//181 216//181
f 204//182 209//182 217//182 212//182
f 205//183 207//183 215//183 213//183
f 209//184 206//184 214//184 217//184
f 225//185 222//185 230//185 233//185
f 221//186 223//186 231//186 229//186
f 220//187 225//187 233//187 228//187
f 224//188 220//188 228//188 232//188
f 214//189 218//189 226//189 222//189
f 203//190 216//190 224//190 211//190
f 218//191 213//191 221//191 226//191
f 216//192 212//192 220//192 224//192
f 232//193 228//193 236//193 240//193
f 234//194 229//194 237//194 242//194
f 219//195 232//195 240//195 227//195
f 230//196 234//196 242//196 238//196
f 223//197 211//197 219//197 231//197
f 222//198 226//198 234//198 230//198
f 211//199 224//199 232//199 219//199
f 226//200 221//200 229//200 234//200
f 227//201 240//201 248//201 235//201
f 238//202 242//202 250//202 246//202
f 239//203 227//203 235//203 247//203
f 241//204 238//204 246//204 249//204
f 228//205 233//205 241//205 236//205
f 229//206 231//206 239//206 237//206
f 233//207 230//207 238//207 241//207
f 231//208 219//208 227//208 239//208
f 247//209 235//209 243//209 255//209
f 249//210 246//210 254//210 257//210
f 245//211 247//211 255//211 253//211
f 244//212 249//212 257//212 252//212
f 242//213 237//213 245//213 250//213
f 240//214 236//214 244//214 248//214
f 236//215 241//215 249//215 244//215
f 237//216 239//216 247//216 245//216
f 253//217 255//217 262//217 260//217
f 252//218 257//218 264//218 259//218
f 256//219 252//219 259//219 263//219
f 258//220 253//220 260//220 265//220
f 246//221 250//221 258//221 254//221
f 235//222 248//222 256//222 243//222
f 250//223 245//223 253//223 258//223
f 248//224 244//224 252//224 256//224
f 266//225 264//225 261//225 265//225
f 262//226 266//226 265//226 260//226
f 251//227 263//227 266//227 262//227
f 263//228 259//228 264//228 266//228
f 257//229 254//229 261//229 264//229
f 255//230 243//230 251//230 262//230
f 254//231 258//231 265//231 261//231
f 243//232 256//232 263//232 251//232
