# Blender v2.79 (sub 0) OBJ File: ''
# www.blender.org
mtllib water.mtl
o Plane
v -1.000000 0.000000 1.000000
v 1.000000 0.000000 1.000000
v -1.000000 0.000000 -1.000000
v 1.000000 0.000000 -1.000000
v -1.000000 0.000000 -0.818182
v -1.000000 0.061393 -0.636364
v -1.000000 0.061393 -0.454545
v -1.000000 0.000000 -0.272727
v -1.000000 0.000000 -0.090909
v -1.000000 -0.033241 0.090909
v -1.000000 -0.033241 0.272727
v -1.000000 0.000000 0.454545
v -1.000000 0.035597 0.636364
v -1.000000 0.000000 0.818182
v -0.818182 0.000000 1.000000
v -0.636364 0.000000 1.000000
v -0.454545 0.057465 1.000000
v -0.272727 0.057465 1.000000
v -0.090909 0.000000 1.000000
v 0.090909 0.000000 1.000000
v 0.272727 -0.049254 1.000000
v 0.454545 -0.064124 1.000000
v 0.636364 -0.049254 1.000000
v 0.818182 0.000000 1.000000
v 1.000000 0.000000 0.818182
v 1.000000 0.035597 0.636364
v 1.000000 0.000000 0.454545
v 1.000000 -0.033241 0.272727
v 1.000000 -0.033241 0.090909
v 1.000000 0.000000 -0.090909
v 1.000000 0.000000 -0.272727
v 1.000000 0.061393 -0.454545
v 1.000000 0.061393 -0.636364
v 1.000000 0.000000 -0.818182
v 0.818182 0.000000 -1.000000
v 0.636364 -0.049254 -1.000000
v 0.454545 -0.049254 -1.000000
v 0.272727 -0.049254 -1.000000
v 0.090909 0.000000 -1.000000
v -0.090909 0.000000 -1.000000
v -0.272727 0.057465 -1.000000
v -0.454545 0.057465 -1.000000
v -0.636364 0.000000 -1.000000
v -0.818182 0.000000 -1.000000
v -0.806016 0.008538 0.809760
v -0.799000 0.013458 0.720197
v -0.771279 -0.018168 0.502099
v -0.863113 -0.008040 0.213836
v -0.868797 -0.035128 0.051287
v -0.868147 0.053604 -0.065138
v -0.856153 -0.059675 -0.283546
v -0.826649 0.000995 -0.461489
v -0.802995 0.052204 -0.619720
v -0.819130 -0.007327 -0.832733
v -0.613873 -0.011843 0.907027
v -0.629835 -0.010664 0.638918
v -0.637727 -0.001769 0.453299
v -0.625315 0.000908 0.283522
v -0.651130 -0.020333 0.055941
v -0.630077 -0.060469 -0.043640
v -0.632048 -0.039683 -0.214592
v -0.600804 0.012255 -0.437800
v -0.679236 0.018835 -0.654568
v -0.676786 0.009314 -0.773690
v -0.425690 0.012257 0.784053
v -0.518327 -0.068334 0.614160
v -0.463218 0.029380 0.443815
v -0.431468 -0.031755 0.279418
v -0.389769 0.014960 0.163538
v -0.459554 0.012264 -0.083900
v -0.451957 0.005811 -0.272170
v -0.510639 0.047944 -0.427608
v -0.463965 0.026142 -0.631225
v -0.417042 -0.010883 -0.798598
v -0.273134 0.001543 0.820567
v -0.309371 -0.008760 0.681893
v -0.236971 -0.064368 0.442104
v -0.221556 0.031515 0.223902
v -0.278793 -0.025822 0.105646
v -0.261664 0.016747 -0.121390
v -0.267103 -0.010457 -0.262828
v -0.323228 -0.020149 -0.445654
v -0.277266 -0.024808 -0.601139
v -0.272861 0.000024 -0.818201
v -0.035299 0.049278 0.760628
v -0.090080 -0.000000 0.637587
v -0.060199 -0.069704 0.492753
v -0.027727 0.012383 0.227132
v -0.030526 0.040944 0.130102
v -0.059110 0.039391 -0.083158
v -0.140061 -0.002958 -0.300740
v -0.127137 0.049452 -0.432832
v -0.090295 0.022222 -0.637321
v -0.027489 0.028037 -0.812671
v 0.125317 0.020091 0.869360
v 0.079519 0.064107 0.616147
v 0.129164 -0.054507 0.498895
v 0.150000 -0.009649 0.279681
v 0.092628 -0.006250 0.004261
v 0.085708 0.057983 -0.029712
v 0.093736 -0.000613 -0.259828
v 0.044636 0.006849 -0.471514
v 0.087938 -0.001185 -0.637839
v 0.075898 -0.047996 -0.788773
v 0.271050 -0.031051 0.868020
v 0.331329 0.069817 0.606769
v 0.325201 -0.012652 0.453937
v 0.304742 -0.063971 0.268469
v 0.339239 0.019565 0.121691
v 0.230504 -0.009421 -0.124536
v 0.277348 -0.007584 -0.290377
v 0.304175 -0.015651 -0.504550
v 0.287599 0.027888 -0.669818
v 0.317829 -0.003348 -0.873940
v 0.493161 -0.032625 0.779976
v 0.456015 -0.069124 0.689415
v 0.487880 0.004318 0.436697
v 0.463547 0.009448 0.308136
v 0.424162 0.027325 0.101187
v 0.448977 -0.001629 -0.163498
v 0.404836 -0.001039 -0.275384
v 0.424541 0.071177 -0.489919
v 0.413348 0.011411 -0.602431
v 0.463018 0.003355 -0.857415
v 0.652302 -0.029649 0.886954
v 0.641319 0.007158 0.638561
v 0.722158 0.022936 0.416184
v 0.646109 0.002954 0.267822
v 0.600360 -0.029631 0.121450
v 0.553760 0.013402 -0.049304
v 0.638989 -0.035217 -0.302890
v 0.701396 0.011428 -0.379630
v 0.647401 0.013204 -0.613381
v 0.672944 0.009095 -0.849290
v 0.806162 0.006302 0.826330
v 0.839890 -0.012167 0.551644
v 0.821542 0.006831 0.437995
v 0.796185 -0.014646 0.271711
v 0.820479 -0.002889 0.064383
v 0.818140 0.008941 -0.062609
v 0.822291 -0.010404 -0.204378
v 0.793812 -0.010040 -0.424671
v 0.800179 0.042619 -0.609733
v 0.826779 -0.091238 -0.834406
vt 0.913389 0.917203
vt 1.000000 0.909091
vt 1.000000 1.000000
vt 0.909091 1.000000
vt 0.000000 0.909091
vt 0.090435 0.916366
vt 0.090909 1.000000
vt 0.000000 1.000000
vt 0.161607 0.886845
vt 0.181818 1.000000
vt 0.291479 0.899299
vt 0.272727 1.000000
vt 0.363570 0.909100
vt 0.363636 1.000000
vt 0.486256 0.906336
vt 0.454545 1.000000
vt 0.537949 0.894386
vt 0.545455 1.000000
vt 0.658914 0.936970
vt 0.636364 1.000000
vt 0.731509 0.928708
vt 0.727273 1.000000
vt 0.836472 0.924645
vt 0.818182 1.000000
vt 0.000000 0.000000
vt 0.090909 0.000000
vt 0.096992 0.095120
vt 0.000000 0.090909
vt 0.100500 0.139901
vt 0.000000 0.181818
vt 0.114361 0.248950
vt 0.000000 0.272727
vt 0.068443 0.393082
vt 0.000000 0.363636
vt 0.065601 0.474357
vt 0.000000 0.454545
vt 0.065927 0.532569
vt 0.000000 0.545455
vt 0.071924 0.641773
vt 0.000000 0.636364
vt 0.086676 0.730744
vt 0.000000 0.727273
vt 0.098503 0.809860
vt 0.000000 0.818182
vt 0.181818 0.000000
vt 0.193064 0.046487
vt 0.185083 0.180541
vt 0.181136 0.273350
vt 0.187343 0.358239
vt 0.174435 0.472030
vt 0.184961 0.521820
vt 0.183976 0.607296
vt 0.199598 0.718900
vt 0.160382 0.827284
vt 0.272727 0.000000
vt 0.287155 0.107973
vt 0.240837 0.192920
vt 0.268391 0.278092
vt 0.284266 0.360291
vt 0.305115 0.418231
vt 0.270223 0.541950
vt 0.274022 0.636085
vt 0.244680 0.713804
vt 0.268017 0.815613
vt 0.363636 0.000000
vt 0.363433 0.089716
vt 0.345314 0.159053
vt 0.381514 0.278948
vt 0.389222 0.388049
vt 0.360604 0.447177
vt 0.369168 0.560695
vt 0.366449 0.631414
vt 0.338386 0.722827
vt 0.361367 0.800570
vt 0.454545 0.000000
vt 0.482351 0.119686
vt 0.454960 0.181206
vt 0.469900 0.253624
vt 0.486136 0.386434
vt 0.484737 0.434949
vt 0.470445 0.541579
vt 0.429970 0.650370
vt 0.436431 0.716416
vt 0.454853 0.818660
vt 0.545455 0.000000
vt 0.562659 0.065320
vt 0.539759 0.191927
vt 0.564582 0.250553
vt 0.575000 0.360160
vt 0.546314 0.497869
vt 0.542854 0.514856
vt 0.546868 0.629914
vt 0.522318 0.735757
vt 0.543969 0.818920
vt 0.636364 0.000000
vt 0.635525 0.065990
vt 0.665664 0.196616
vt 0.662601 0.273032
vt 0.652371 0.365765
vt 0.669620 0.439155
vt 0.615252 0.562268
vt 0.638674 0.645189
vt 0.652088 0.752275
vt 0.643799 0.834909
vt 0.727273 0.000000
vt 0.746580 0.110012
vt 0.728007 0.155292
vt 0.743940 0.281651
vt 0.731774 0.345932
vt 0.712081 0.449406
vt 0.724489 0.581749
vt 0.702418 0.637692
vt 0.712270 0.744960
vt 0.706674 0.801215
vt 0.818182 0.000000
vt 0.826151 0.056523
vt 0.820660 0.180720
vt 0.861079 0.291908
vt 0.823055 0.366089
vt 0.800180 0.439275
vt 0.776880 0.524652
vt 0.819494 0.651445
vt 0.850698 0.689815
vt 0.823701 0.806691
vt 0.909091 0.000000
vt 0.903081 0.086835
vt 0.919945 0.224178
vt 0.910771 0.281003
vt 0.898092 0.364144
vt 0.910240 0.467809
vt 0.909070 0.531305
vt 0.911145 0.602189
vt 0.896906 0.712335
vt 0.900090 0.804867
vt 1.000000 0.000000
vt 1.000000 0.090909
vt 1.000000 0.181818
vt 1.000000 0.272727
vt 1.000000 0.363636
vt 1.000000 0.454545
vt 1.000000 0.545455
vt 1.000000 0.636364
vt 1.000000 0.727273
vt 1.000000 0.818182
vn -0.2517 0.9345 0.2517
vn 0.0210 0.9996 0.0210
vn -0.0494 0.9987 -0.0102
vn -0.0757 0.9878 0.1358
vn -0.0130 0.9497 0.3130
vn 0.0677 0.9954 0.0677
vn 0.2562 0.9665 0.0173
vn 0.0119 0.9999 0.0051
vn -0.0019 0.9390 -0.3440
vn -0.0064 0.9356 -0.3530
vn 0.1464 0.9859 0.0816
vn -0.0222 0.9995 0.0222
vn 0.0058 0.9890 0.1478
vn 0.1391 0.9781 -0.1548
vn -0.0206 0.9988 -0.0451
vn -0.1141 0.9906 -0.0760
vn -0.1600 0.9138 0.3734
vn 0.0359 0.9619 -0.2712
vn 0.3506 0.8778 0.3266
vn 0.1783 0.9711 0.1586
vn 0.0434 0.9548 -0.2942
vn 0.0557 0.9984 -0.0048
vn 0.1216 0.9925 0.0139
vn 0.0013 0.9984 -0.0561
vn -0.0703 0.9967 0.0400
vn -0.0321 0.9922 -0.1203
vn 0.1941 0.9527 0.2338
vn 0.2356 0.9469 -0.2189
vn -0.1185 0.9605 0.2517
vn 0.0670 0.9875 0.1424
vn 0.0800 0.9753 -0.2061
vn -0.2789 0.9350 -0.2190
vn 0.0198 0.9829 -0.1831
vn 0.1236 0.9460 0.2997
vn -0.0023 0.9850 -0.1726
vn -0.0223 0.9971 0.0729
vn -0.2289 0.9695 -0.0875
vn -0.3111 0.9498 0.0330
vn -0.2380 0.9384 0.2504
vn -0.1366 0.9903 -0.0255
vn 0.0263 0.9874 -0.1559
vn 0.0576 0.9682 -0.2435
vn -0.0550 0.9638 -0.2609
vn 0.0596 0.9910 0.1203
vn 0.0824 0.9915 0.1002
vn -0.0838 0.9957 -0.0396
vn 0.1371 0.9882 0.0678
vn 0.0232 0.9946 -0.1014
vn 0.2214 0.9750 0.0184
vn 0.3030 0.9530 0.0079
vn 0.1206 0.9926 -0.0154
vn 0.0213 0.9997 -0.0130
vn -0.1583 0.9733 -0.1665
vn -0.0032 0.9505 -0.3106
vn 0.0116 0.9381 0.3462
vn -0.1001 0.9895 -0.1043
vn -0.2065 0.9737 0.0961
vn -0.0896 0.9816 -0.1686
vn -0.2173 0.9628 0.1604
vn -0.2964 0.9430 -0.1517
vn -0.1675 0.9847 0.0482
vn 0.0234 0.9816 0.1897
vn -0.1091 0.9939 0.0153
vn -0.1956 0.7673 -0.6107
vn -0.0221 0.9677 0.2510
vn 0.2345 0.9711 0.0454
vn 0.1622 0.9618 0.2205
vn 0.0009 0.9755 -0.2201
vn 0.0966 0.9822 0.1609
vn 0.1791 0.9823 -0.0547
vn 0.3371 0.9392 -0.0656
vn 0.2893 0.9414 0.1733
vn 0.1165 0.9551 0.2723
vn -0.1564 0.7800 -0.6059
vn 0.0330 0.9993 -0.0159
vn 0.0164 0.9795 0.2008
vn 0.1005 0.9914 0.0832
vn 0.1772 0.9774 -0.1155
vn 0.0657 0.9978 -0.0049
vn 0.0009 0.9943 0.1065
vn -0.2172 0.9510 -0.2202
vn 0.0722 0.9865 0.1469
vn 0.3712 0.9088 0.1907
vn 0.3899 0.9209 0.0042
vn -0.2625 0.9593 -0.1037
vn -0.3234 0.9084 0.2649
vn -0.0707 0.9924 -0.1009
vn -0.0408 0.9991 0.0083
vn -0.3612 0.9272 0.0995
vn -0.2655 0.9636 -0.0297
vn 0.0591 0.9954 -0.0749
vn -0.0943 0.9862 0.1359
vn -0.2293 0.9728 0.0334
vn -0.1965 0.9711 0.1357
vn -0.0350 0.9986 -0.0409
vn 0.1692 0.9822 -0.0816
vn 0.1357 0.9904 0.0252
vn 0.0866 0.9890 -0.1202
vn 0.1025 0.9106 0.4005
vn 0.1471 0.9707 -0.1903
vn -0.0171 0.9995 -0.0274
vn -0.2308 0.9693 0.0844
vn -0.0331 0.9989 0.0336
vn 0.1447 0.9811 0.1285
vn 0.1496 0.9729 -0.1764
vn -0.0328 0.9978 -0.0568
vn -0.0185 0.9827 0.1841
vn -0.0120 0.9850 -0.1721
vn -0.0414 0.9876 0.1516
vn -0.0102 0.9915 0.1300
vn 0.2325 0.9386 -0.2548
vn 0.0171 0.9997 0.0171
vn -0.1223 0.9921 0.0282
vn -0.1053 0.9932 -0.0493
vn 0.0728 0.9844 -0.1600
vn 0.1239 0.9916 0.0377
vn 0.1077 0.9839 0.1428
vn -0.0202 0.9980 -0.0599
vn -0.1661 0.9728 0.1612
vn -0.1968 0.9710 0.1359
vn -0.2662 0.8620 -0.4314
usemtl Water
s off
f 144/1/1 34/2/1 4/3/1 35/4/1
f 5/5/2 54/6/2 44/7/2 3/8/2
f 54/6/3 64/9/3 43/10/3 44/7/3
f 64/9/4 74/11/4 42/12/4 43/10/4
f 74/11/5 84/13/5 41/14/5 42/12/5
f 84/13/6 94/15/6 40/16/6 41/14/6
f 94/15/7 104/17/7 39/18/7 40/16/7
f 104/17/8 114/19/8 38/20/8 39/18/8
f 114/19/9 124/21/9 37/22/9 38/20/9
f 124/21/10 134/23/10 36/24/10 37/22/10
f 134/23/11 144/1/11 35/4/11 36/24/11
f 1/25/12 15/26/12 45/27/12 14/28/12
f 14/28/13 45/27/13 46/29/13 13/30/13
f 13/30/14 46/29/14 47/31/14 12/32/14
f 12/32/15 47/31/15 48/33/15 11/34/15
f 11/34/16 48/33/16 49/35/16 10/36/16
f 10/36/17 49/35/17 50/37/17 9/38/17
f 9/38/18 50/37/18 51/39/18 8/40/18
f 8/40/19 51/39/19 52/41/19 7/42/19
f 7/42/20 52/41/20 53/43/20 6/44/20
f 6/44/21 53/43/21 54/6/21 5/5/21
f 15/26/22 16/45/22 55/46/22 45/27/22
f 45/27/23 55/46/23 56/47/23 46/29/23
f 46/29/24 56/47/24 57/48/24 47/31/24
f 47/31/25 57/48/25 58/49/25 48/33/25
f 48/33/26 58/49/26 59/50/26 49/35/26
f 49/35/27 59/50/27 60/51/27 50/37/27
f 50/37/28 60/51/28 61/52/28 51/39/28
f 51/39/29 61/52/29 62/53/29 52/41/29
f 52/41/30 62/53/30 63/54/30 53/43/30
f 53/43/31 63/54/31 64/9/31 54/6/31
f 16/45/32 17/55/32 65/56/32 55/46/32
f 55/46/33 65/56/33 66/57/33 56/47/33
f 56/47/34 66/57/34 67/58/34 57/48/34
f 57/48/35 67/58/35 68/59/35 58/49/35
f 58/49/36 68/59/36 69/60/36 59/50/36
f 59/50/37 69/60/37 70/61/37 60/51/37
f 60/51/38 70/61/38 71/62/38 61/52/38
f 61/52/39 71/62/39 72/63/39 62/53/39
f 62/53/40 72/63/40 73/64/40 63/54/40
f 63/54/41 73/64/41 74/11/41 64/9/41
f 17/55/42 18/65/42 75/66/42 65/56/42
f 65/56/43 75/66/43 76/67/43 66/57/43
f 66/57/44 76/67/44 77/68/44 67/58/44
f 67/58/45 77/68/45 78/69/45 68/59/45
f 68/59/46 78/69/46 79/70/46 69/60/46
f 69/60/47 79/70/47 80/71/47 70/61/47
f 70/61/48 80/71/48 81/72/48 71/62/48
f 71/62/49 81/72/49 82/73/49 72/63/49
f 72/63/50 82/73/50 83/74/50 73/64/50
f 73/64/51 83/74/51 84/13/51 74/11/51
f 18/65/52 19/75/52 85/76/52 75/66/52
f 75/66/53 85/76/53 86/77/53 76/67/53
f 76/67/54 86/77/54 87/78/54 77/68/54
f 77/68/55 87/78/55 88/79/55 78/69/55
f 78/69/56 88/79/56 89/80/56 79/70/56
f 79/70/57 89/80/57 90/81/57 80/71/57
f 80/71/58 90/81/58 91/82/58 81/72/58
f 81/72/59 91/82/59 92/83/59 82/73/59
f 82/73/60 92/83/60 93/84/60 83/74/60
f 83/74/61 93/84/61 94/15/61 84/13/61
f 19/75/62 20/85/62 95/86/62 85/76/62
f 85/76/63 95/86/63 96/87/63 86/77/63
f 86/77/64 96/87/64 97/88/64 87/78/64
f 87/78/65 97/88/65 98/89/65 88/79/65
f 88/79/66 98/89/66 99/90/66 89/80/66
f 89/80/67 99/90/67 100/91/67 90/81/67
f 90/81/68 100/91/68 101/92/68 91/82/68
f 91/82/69 101/92/69 102/93/69 92/83/69
f 92/83/70 102/93/70 103/94/70 93/84/70
f 93/84/71 103/94/71 104/17/71 94/15/71
f 20/85/72 21/95/72 105/96/72 95/86/72
f 95/86/73 105/96/73 106/97/73 96/87/73
f 96/87/74 106/97/74 107/98/74 97/88/74
f 97/88/75 107/98/75 108/99/75 98/89/75
f 98/89/76 108/99/76 109/100/76 99/90/76
f 99/90/77 109/100/77 110/101/77 100/91/77
f 100/91/78 110/101/78 111/102/78 101/92/78
f 101/92/79 111/102/79 112/103/79 102/93/79
f 102/93/80 112/103/80 113/104/80 103/94/80
f 103/94/81 113/104/81 114/19/81 104/17/81
f 21/95/82 22/105/82 115/106/82 105/96/82
f 105/96/83 115/106/83 116/107/83 106/97/83
f 106/97/84 116/107/84 117/108/84 107/98/84
f 107/98/85 117/108/85 118/109/85 108/99/85
f 108/99/86 118/109/86 119/110/86 109/100/86
f 109/100/87 119/110/87 120/111/87 110/101/87
f 110/101/88 120/111/88 121/112/88 111/102/88
f 111/102/89 121/112/89 122/113/89 112/103/89
f 112/103/90 122/113/90 123/114/90 113/104/90
f 113/104/91 123/114/91 124/21/91 114/19/91
f 22/105/92 23/115/92 125/116/92 115/106/92
f 115/106/93 125/116/93 126/117/93 116/107/93
f 116/107/94 126/117/94 127/118/94 117/108/94
f 117/108/95 127/118/95 128/119/95 118/109/95
f 118/109/96 128/119/96 129/120/96 119/110/96
f 119/110/97 129/120/97 130/121/97 120/111/97
f 120/111/98 130/121/98 131/122/98 121/112/98
f 121/112/99 131/122/99 132/123/99 122/113/99
f 122/113/100 132/123/100 133/124/100 123/114/100
f 123/114/101 133/124/101 134/23/101 124/21/101
f 23/115/102 24/125/102 135/126/102 125/116/102
f 125/116/103 135/126/103 136/127/103 126/117/103
f 126/117/104 136/127/104 137/128/104 127/118/104
f 127/118/105 137/128/105 138/129/105 128/119/105
f 128/119/106 138/129/106 139/130/106 129/120/106
f 129/120/107 139/130/107 140/131/107 130/121/107
f 130/121/108 140/131/108 141/132/108 131/122/108
f 131/122/109 141/132/109 142/133/109 132/123/109
f 132/123/110 142/133/110 143/134/110 133/124/110
f 133/124/111 143/134/111 144/1/111 134/23/111
f 24/125/112 2/135/112 25/136/112 135/126/112
f 135/126/113 25/136/113 26/137/113 136/127/113
f 136/127/114 26/137/114 27/138/114 137/128/114
f 137/128/115 27/138/115 28/139/115 138/129/115
f 138/129/116 28/139/116 29/140/116 139/130/116
f 139/130/117 29/140/117 30/141/117 140/131/117
f 140/131/118 30/141/118 31/142/118 141/132/118
f 141/132/119 31/142/119 32/143/119 142/133/119
f 142/133/120 32/143/120 33/144/120 143/134/120
f 143/134/121 33/144/121 34/2/121 144/1/121
